<svg width="746" height="176" viewBox="0 0 746 176" fill="none" xmlns="http://www.w3.org/2000/svg">
<circle cx="28" cy="74" r="27" stroke="black" stroke-width="2"/>
<line x1="156" y1="74" x2="584.001" y2="74" stroke="black" stroke-width="2"/>
<line x1="56" y1="74" x2="68" y2="74" stroke="black" stroke-width="2"/>
<line x1="97" y1="74" x2="155" y2="74" stroke="black" stroke-width="2" stroke-dasharray="4 4"/>
<line x1="156" y1="125" x2="156" y2="25" stroke="black" stroke-width="2"/>
<line x1="583" y1="125" x2="583" y2="25" stroke="black" stroke-width="2"/>
<rect x="67" y="67" width="30" height="14" stroke="black" stroke-width="2"/>
<path d="M7 76.4286L10.0093 69.5437C12.6402 63.5248 21.0024 63.0662 24.2757 68.7613L32.4105 82.915C35.4884 88.2701 43.2161 88.2654 46.2874 82.9064L50 76.4286" stroke="black" stroke-width="2"/>
<path d="M134.877 134.091C134.792 133.371 134.447 132.812 133.84 132.415C133.234 132.017 132.491 131.818 131.61 131.818C130.966 131.818 130.403 131.922 129.92 132.131C129.442 132.339 129.068 132.625 128.798 132.99C128.533 133.355 128.4 133.769 128.4 134.233C128.4 134.621 128.492 134.955 128.677 135.234C128.867 135.509 129.108 135.739 129.402 135.923C129.695 136.103 130.003 136.252 130.325 136.371C130.647 136.484 130.943 136.577 131.213 136.648L132.69 137.045C133.069 137.145 133.49 137.282 133.954 137.457C134.423 137.633 134.87 137.872 135.296 138.175C135.727 138.473 136.082 138.857 136.362 139.325C136.641 139.794 136.781 140.369 136.781 141.051C136.781 141.837 136.575 142.547 136.163 143.182C135.756 143.816 135.159 144.321 134.373 144.695C133.592 145.069 132.643 145.256 131.525 145.256C130.483 145.256 129.581 145.088 128.819 144.751C128.062 144.415 127.465 143.946 127.029 143.345C126.599 142.744 126.355 142.045 126.298 141.25H128.116C128.163 141.799 128.348 142.254 128.67 142.614C128.997 142.969 129.409 143.234 129.906 143.409C130.408 143.58 130.947 143.665 131.525 143.665C132.197 143.665 132.801 143.556 133.336 143.338C133.871 143.116 134.295 142.808 134.608 142.415C134.92 142.017 135.076 141.553 135.076 141.023C135.076 140.54 134.941 140.147 134.671 139.844C134.402 139.541 134.046 139.295 133.606 139.105C133.166 138.916 132.69 138.75 132.179 138.608L130.389 138.097C129.252 137.77 128.353 137.304 127.69 136.697C127.027 136.091 126.696 135.298 126.696 134.318C126.696 133.504 126.916 132.794 127.356 132.188C127.801 131.577 128.398 131.103 129.146 130.767C129.899 130.426 130.739 130.256 131.667 130.256C132.605 130.256 133.438 130.424 134.167 130.76C134.896 131.091 135.474 131.546 135.9 132.124C136.331 132.701 136.558 133.357 136.582 134.091H134.877ZM151.381 135H149.62C149.516 134.493 149.333 134.048 149.073 133.665C148.817 133.281 148.505 132.959 148.136 132.699C147.771 132.434 147.366 132.235 146.921 132.102C146.476 131.97 146.012 131.903 145.529 131.903C144.648 131.903 143.851 132.126 143.136 132.571C142.425 133.016 141.86 133.672 141.438 134.538C141.021 135.405 140.813 136.468 140.813 137.727C140.813 138.987 141.021 140.05 141.438 140.916C141.86 141.783 142.425 142.438 143.136 142.884C143.851 143.329 144.648 143.551 145.529 143.551C146.012 143.551 146.476 143.485 146.921 143.352C147.366 143.22 147.771 143.023 148.136 142.763C148.505 142.498 148.817 142.173 149.073 141.79C149.333 141.402 149.516 140.956 149.62 140.455H151.381C151.249 141.198 151.007 141.863 150.657 142.45C150.306 143.037 149.871 143.537 149.35 143.949C148.829 144.356 148.244 144.666 147.596 144.879C146.952 145.092 146.263 145.199 145.529 145.199C144.288 145.199 143.185 144.896 142.219 144.29C141.253 143.684 140.494 142.822 139.94 141.705C139.386 140.587 139.109 139.261 139.109 137.727C139.109 136.193 139.386 134.867 139.94 133.75C140.494 132.633 141.253 131.771 142.219 131.165C143.185 130.559 144.288 130.256 145.529 130.256C146.263 130.256 146.952 130.362 147.596 130.575C148.244 130.788 148.829 131.101 149.35 131.513C149.871 131.92 150.306 132.417 150.657 133.004C151.007 133.587 151.249 134.252 151.381 135ZM165.932 135H164.171C164.067 134.493 163.884 134.048 163.624 133.665C163.368 133.281 163.056 132.959 162.686 132.699C162.322 132.434 161.917 132.235 161.472 132.102C161.027 131.97 160.563 131.903 160.08 131.903C159.199 131.903 158.401 132.126 157.686 132.571C156.976 133.016 156.41 133.672 155.989 134.538C155.572 135.405 155.364 136.468 155.364 137.727C155.364 138.987 155.572 140.05 155.989 140.916C156.41 141.783 156.976 142.438 157.686 142.884C158.401 143.329 159.199 143.551 160.08 143.551C160.563 143.551 161.027 143.485 161.472 143.352C161.917 143.22 162.322 143.023 162.686 142.763C163.056 142.498 163.368 142.173 163.624 141.79C163.884 141.402 164.067 140.956 164.171 140.455H165.932C165.8 141.198 165.558 141.863 165.208 142.45C164.857 143.037 164.422 143.537 163.901 143.949C163.38 144.356 162.795 144.666 162.147 144.879C161.503 145.092 160.814 145.199 160.08 145.199C158.839 145.199 157.736 144.896 156.77 144.29C155.804 143.684 155.044 142.822 154.49 141.705C153.936 140.587 153.659 139.261 153.659 137.727C153.659 136.193 153.936 134.867 154.49 133.75C155.044 132.633 155.804 131.771 156.77 131.165C157.736 130.559 158.839 130.256 160.08 130.256C160.814 130.256 161.503 130.362 162.147 130.575C162.795 130.788 163.38 131.101 163.901 131.513C164.422 131.92 164.857 132.417 165.208 133.004C165.558 133.587 165.8 134.252 165.932 135ZM171.168 140.273V149H169.846V141.594H169.795L167.707 142.957V141.696L169.885 140.273H171.168ZM173.939 145.812V145.676C173.939 144.994 174.067 144.406 174.323 143.912C174.579 143.418 174.941 143.037 175.41 142.77C175.878 142.503 176.43 142.369 177.063 142.369C177.546 142.369 177.979 142.446 178.363 142.599C178.749 142.75 179.077 142.969 179.347 143.256C179.62 143.543 179.829 143.891 179.974 144.3C180.118 144.706 180.191 145.165 180.191 145.676V145.812C180.191 146.494 180.063 147.082 179.807 147.577C179.555 148.071 179.194 148.452 178.725 148.719C178.259 148.986 177.705 149.119 177.063 149.119C176.603 149.119 176.181 149.045 175.797 148.898C175.414 148.75 175.083 148.533 174.805 148.246C174.529 147.959 174.316 147.612 174.165 147.206C174.015 146.797 173.939 146.332 173.939 145.812ZM175.324 145.676V145.812C175.324 146.153 175.363 146.46 175.439 146.733C175.519 147.003 175.633 147.234 175.78 147.428C175.931 147.618 176.114 147.764 176.33 147.866C176.546 147.966 176.79 148.016 177.063 148.016C177.339 148.016 177.583 147.966 177.796 147.866C178.012 147.764 178.195 147.618 178.346 147.428C178.496 147.234 178.61 147.003 178.687 146.733C178.766 146.46 178.806 146.153 178.806 145.812V145.676C178.806 145.344 178.768 145.043 178.691 144.773C178.614 144.503 178.502 144.271 178.354 144.078C178.206 143.882 178.025 143.732 177.809 143.626C177.593 143.521 177.344 143.469 177.063 143.469C176.79 143.469 176.546 143.521 176.33 143.626C176.117 143.729 175.935 143.876 175.785 144.07C175.634 144.263 175.519 144.496 175.439 144.768C175.363 145.038 175.324 145.341 175.324 145.676ZM176.381 151.318V140.273H177.745V151.318H176.381ZM183.132 149H181.734L184.875 140.273H186.396L189.537 149H188.139L185.672 141.858H185.604L183.132 149ZM183.367 145.582H187.901V146.69H183.367V145.582ZM133.846 158.091C133.761 157.371 133.415 156.812 132.809 156.415C132.203 156.017 131.46 155.818 130.579 155.818C129.935 155.818 129.372 155.922 128.889 156.131C128.411 156.339 128.036 156.625 127.767 156.99C127.501 157.355 127.369 157.769 127.369 158.233C127.369 158.621 127.461 158.955 127.646 159.234C127.835 159.509 128.077 159.739 128.37 159.923C128.664 160.103 128.972 160.252 129.294 160.371C129.616 160.484 129.911 160.577 130.181 160.648L131.659 161.045C132.037 161.145 132.459 161.282 132.923 161.457C133.392 161.633 133.839 161.872 134.265 162.175C134.696 162.473 135.051 162.857 135.331 163.325C135.61 163.794 135.75 164.369 135.75 165.051C135.75 165.837 135.544 166.547 135.132 167.182C134.724 167.816 134.128 168.321 133.342 168.695C132.561 169.069 131.611 169.256 130.494 169.256C129.452 169.256 128.55 169.088 127.788 168.751C127.03 168.415 126.434 167.946 125.998 167.345C125.567 166.744 125.323 166.045 125.267 165.25H127.085C127.132 165.799 127.317 166.254 127.639 166.614C127.965 166.969 128.377 167.234 128.875 167.409C129.376 167.58 129.916 167.665 130.494 167.665C131.166 167.665 131.77 167.556 132.305 167.338C132.84 167.116 133.264 166.808 133.576 166.415C133.889 166.017 134.045 165.553 134.045 165.023C134.045 164.54 133.91 164.147 133.64 163.844C133.37 163.541 133.015 163.295 132.575 163.105C132.134 162.916 131.659 162.75 131.147 162.608L129.358 162.097C128.221 161.77 127.322 161.304 126.659 160.697C125.996 160.091 125.664 159.298 125.664 158.318C125.664 157.504 125.884 156.794 126.325 156.188C126.77 155.577 127.367 155.103 128.115 154.767C128.867 154.426 129.708 154.256 130.636 154.256C131.573 154.256 132.407 154.424 133.136 154.76C133.865 155.091 134.443 155.546 134.869 156.124C135.3 156.701 135.527 157.357 135.551 158.091H133.846ZM150.35 159H148.589C148.485 158.493 148.302 158.048 148.042 157.665C147.786 157.281 147.474 156.959 147.104 156.699C146.74 156.434 146.335 156.235 145.89 156.102C145.445 155.97 144.981 155.903 144.498 155.903C143.617 155.903 142.819 156.126 142.104 156.571C141.394 157.016 140.828 157.672 140.407 158.538C139.99 159.405 139.782 160.468 139.782 161.727C139.782 162.987 139.99 164.05 140.407 164.916C140.828 165.783 141.394 166.438 142.104 166.884C142.819 167.329 143.617 167.551 144.498 167.551C144.981 167.551 145.445 167.485 145.89 167.352C146.335 167.22 146.74 167.023 147.104 166.763C147.474 166.498 147.786 166.173 148.042 165.79C148.302 165.402 148.485 164.956 148.589 164.455H150.35C150.217 165.198 149.976 165.863 149.626 166.45C149.275 167.037 148.84 167.537 148.319 167.949C147.798 168.356 147.213 168.666 146.565 168.879C145.921 169.092 145.232 169.199 144.498 169.199C143.257 169.199 142.154 168.896 141.188 168.29C140.222 167.684 139.462 166.822 138.908 165.705C138.354 164.587 138.077 163.261 138.077 161.727C138.077 160.193 138.354 158.867 138.908 157.75C139.462 156.633 140.222 155.771 141.188 155.165C142.154 154.559 143.257 154.256 144.498 154.256C145.232 154.256 145.921 154.362 146.565 154.575C147.213 154.788 147.798 155.101 148.319 155.513C148.84 155.92 149.275 156.417 149.626 157.004C149.976 157.587 150.217 158.252 150.35 159ZM164.901 159H163.139C163.035 158.493 162.853 158.048 162.593 157.665C162.337 157.281 162.024 156.959 161.655 156.699C161.291 156.434 160.886 156.235 160.441 156.102C159.996 155.97 159.532 155.903 159.049 155.903C158.168 155.903 157.37 156.126 156.655 156.571C155.945 157.016 155.379 157.672 154.958 158.538C154.541 159.405 154.333 160.468 154.333 161.727C154.333 162.987 154.541 164.05 154.958 164.916C155.379 165.783 155.945 166.438 156.655 166.884C157.37 167.329 158.168 167.551 159.049 167.551C159.532 167.551 159.996 167.485 160.441 167.352C160.886 167.22 161.291 167.023 161.655 166.763C162.024 166.498 162.337 166.173 162.593 165.79C162.853 165.402 163.035 164.956 163.139 164.455H164.901C164.768 165.198 164.527 165.863 164.176 166.45C163.826 167.037 163.39 167.537 162.87 167.949C162.349 168.356 161.764 168.666 161.115 168.879C160.471 169.092 159.782 169.199 159.049 169.199C157.808 169.199 156.705 168.896 155.739 168.29C154.773 167.684 154.013 166.822 153.459 165.705C152.905 164.587 152.628 163.261 152.628 161.727C152.628 160.193 152.905 158.867 153.459 157.75C154.013 156.633 154.773 155.771 155.739 155.165C156.705 154.559 157.808 154.256 159.049 154.256C159.782 154.256 160.471 154.362 161.115 154.575C161.764 154.788 162.349 155.101 162.87 155.513C163.39 155.92 163.826 156.417 164.176 157.004C164.527 157.587 164.768 158.252 164.901 159ZM169.864 173.119C169.278 173.119 168.756 173.018 168.295 172.817C167.838 172.615 167.476 172.335 167.209 171.977C166.945 171.616 166.802 171.199 166.783 170.724H168.121C168.138 170.983 168.224 171.207 168.381 171.398C168.54 171.585 168.747 171.73 169.003 171.832C169.258 171.935 169.543 171.986 169.855 171.986C170.199 171.986 170.503 171.926 170.767 171.807C171.034 171.687 171.243 171.521 171.393 171.308C171.544 171.092 171.619 170.844 171.619 170.562C171.619 170.27 171.544 170.013 171.393 169.791C171.246 169.567 171.028 169.391 170.741 169.263C170.457 169.135 170.114 169.071 169.71 169.071H168.973V167.997H169.71C170.034 167.997 170.318 167.939 170.562 167.822C170.81 167.706 171.003 167.544 171.142 167.337C171.281 167.126 171.351 166.881 171.351 166.599C171.351 166.33 171.29 166.095 171.168 165.896C171.048 165.695 170.878 165.537 170.656 165.423C170.437 165.31 170.179 165.253 169.881 165.253C169.596 165.253 169.331 165.305 169.084 165.411C168.839 165.513 168.641 165.661 168.487 165.854C168.334 166.044 168.251 166.273 168.24 166.54H166.966C166.98 166.068 167.119 165.653 167.383 165.295C167.65 164.937 168.003 164.658 168.44 164.456C168.878 164.254 169.364 164.153 169.898 164.153C170.457 164.153 170.94 164.263 171.346 164.482C171.756 164.697 172.071 164.986 172.293 165.347C172.517 165.707 172.628 166.102 172.625 166.531C172.628 167.02 172.491 167.435 172.216 167.776C171.943 168.116 171.579 168.345 171.125 168.462V168.53C171.704 168.618 172.153 168.848 172.471 169.22C172.793 169.592 172.952 170.054 172.949 170.605C172.952 171.085 172.818 171.516 172.548 171.896C172.281 172.277 171.916 172.577 171.453 172.795C170.99 173.011 170.46 173.119 169.864 173.119ZM174.971 169.812V169.676C174.971 168.994 175.099 168.406 175.354 167.912C175.61 167.418 175.972 167.037 176.441 166.77C176.91 166.503 177.461 166.369 178.094 166.369C178.577 166.369 179.01 166.446 179.394 166.599C179.78 166.75 180.108 166.969 180.378 167.256C180.651 167.543 180.86 167.891 181.005 168.3C181.15 168.706 181.222 169.165 181.222 169.676V169.812C181.222 170.494 181.094 171.082 180.839 171.577C180.586 172.071 180.225 172.452 179.756 172.719C179.29 172.986 178.736 173.119 178.094 173.119C177.634 173.119 177.212 173.045 176.829 172.898C176.445 172.75 176.114 172.533 175.836 172.246C175.56 171.959 175.347 171.612 175.197 171.206C175.046 170.797 174.971 170.332 174.971 169.812ZM176.356 169.676V169.812C176.356 170.153 176.394 170.46 176.471 170.733C176.55 171.003 176.664 171.234 176.812 171.428C176.962 171.618 177.145 171.764 177.361 171.866C177.577 171.966 177.822 172.016 178.094 172.016C178.37 172.016 178.614 171.966 178.827 171.866C179.043 171.764 179.226 171.618 179.377 171.428C179.528 171.234 179.641 171.003 179.718 170.733C179.797 170.46 179.837 170.153 179.837 169.812V169.676C179.837 169.344 179.799 169.043 179.722 168.773C179.645 168.503 179.533 168.271 179.385 168.078C179.238 167.882 179.056 167.732 178.84 167.626C178.624 167.521 178.376 167.469 178.094 167.469C177.822 167.469 177.577 167.521 177.361 167.626C177.148 167.729 176.966 167.876 176.816 168.07C176.665 168.263 176.55 168.496 176.471 168.768C176.394 169.038 176.356 169.341 176.356 169.676ZM177.412 175.318V164.273H178.776V175.318H177.412ZM184.163 173H182.766L185.906 164.273H187.428L190.568 173H189.171L186.703 165.858H186.635L184.163 173ZM184.398 169.582H188.932V170.69H184.398V169.582Z" fill="black"/>
<path d="M69.0164 101V99.7216L76.8573 88.017H68.9312V86.4545H78.9596V87.733L71.1187 99.4375H79.0448V101H69.0164ZM81.934 105H80.5363L83.6769 96.2727H85.1982L88.3388 105H86.9411L84.4738 97.858H84.4056L81.934 105ZM82.1684 101.582H86.7025V102.69H82.1684V101.582ZM92.7407 96.2727V105H91.4197V97.5938H91.3686L89.2805 98.9574V97.696L91.4581 96.2727H92.7407ZM67.7742 125V123.722L75.6151 112.017H67.689V110.455H77.7174V111.733L69.8765 123.438H77.8026V125H67.7742ZM80.6918 129H79.2941L82.4347 120.273H83.956L87.0966 129H85.6989L83.2316 121.858H83.1634L80.6918 129ZM80.9262 125.582H85.4603V126.69H80.9262V125.582ZM91.636 129.145C90.9627 129.142 90.3874 128.964 89.9101 128.612C89.4328 128.26 89.0678 127.747 88.8149 127.074C88.5621 126.401 88.4357 125.589 88.4357 124.641C88.4357 123.695 88.5621 122.886 88.8149 122.216C89.0706 121.545 89.4371 121.034 89.9144 120.682C90.3945 120.33 90.9684 120.153 91.636 120.153C92.3036 120.153 92.876 120.331 93.3533 120.686C93.8306 121.038 94.1956 121.55 94.4485 122.22C94.7041 122.888 94.832 123.695 94.832 124.641C94.832 125.592 94.7056 126.405 94.4527 127.078C94.1999 127.749 93.8348 128.261 93.3576 128.616C92.8803 128.969 92.3064 129.145 91.636 129.145ZM91.636 128.007C92.2269 128.007 92.6885 127.719 93.0209 127.142C93.3561 126.565 93.5238 125.732 93.5238 124.641C93.5238 123.916 93.447 123.304 93.2936 122.804C93.1431 122.301 92.9257 121.92 92.6416 121.662C92.3604 121.401 92.0252 121.27 91.636 121.27C91.0479 121.27 90.5863 121.56 90.251 122.139C89.9158 122.719 89.7468 123.553 89.7439 124.641C89.7439 125.368 89.8192 125.983 89.9698 126.486C90.1232 126.986 90.3405 127.365 90.6218 127.624C90.903 127.879 91.2411 128.007 91.636 128.007Z" fill="black"/>
<path d="M579.257 15V0.454545H584.343C585.356 0.454545 586.192 0.629735 586.85 0.980114C587.508 1.32576 587.998 1.79214 588.32 2.37926C588.642 2.96165 588.803 3.60795 588.803 4.31818C588.803 4.94318 588.692 5.45928 588.469 5.86648C588.251 6.27367 587.962 6.59564 587.603 6.83239C587.248 7.06913 586.862 7.24432 586.445 7.35795V7.5C586.89 7.52841 587.337 7.68466 587.787 7.96875C588.237 8.25284 588.614 8.66004 588.917 9.19034C589.22 9.72064 589.371 10.3693 589.371 11.1364C589.371 11.8655 589.205 12.5213 588.874 13.1037C588.542 13.6861 588.019 14.1477 587.304 14.4886C586.589 14.8295 585.659 15 584.513 15H579.257ZM581.019 13.4375H584.513C585.664 13.4375 586.48 13.215 586.963 12.7699C587.451 12.3201 587.695 11.7756 587.695 11.1364C587.695 10.6439 587.569 10.1894 587.319 9.77273C587.068 9.35133 586.71 9.01515 586.246 8.7642C585.782 8.50852 585.233 8.38068 584.598 8.38068H581.019V13.4375ZM581.019 6.84659H584.286C584.816 6.84659 585.294 6.74242 585.721 6.53409C586.151 6.32576 586.492 6.0322 586.743 5.65341C586.999 5.27462 587.127 4.82955 587.127 4.31818C587.127 3.67898 586.904 3.13684 586.459 2.69176C586.014 2.24195 585.309 2.01705 584.343 2.01705H581.019V6.84659Z" fill="black"/>
<path d="M150.6 15H148.754L154.094 0.454545H155.913L161.254 15H159.407L155.06 2.75568H154.947L150.6 15ZM151.282 9.31818H158.725V10.8807H151.282V9.31818Z" fill="black"/>
<path d="M561.153 140.091C561.068 139.371 560.722 138.812 560.116 138.415C559.51 138.017 558.766 137.818 557.886 137.818C557.242 137.818 556.678 137.922 556.195 138.131C555.717 138.339 555.343 138.625 555.073 138.99C554.808 139.355 554.676 139.769 554.676 140.233C554.676 140.621 554.768 140.955 554.952 141.234C555.142 141.509 555.383 141.739 555.677 141.923C555.97 142.103 556.278 142.252 556.6 142.371C556.922 142.484 557.218 142.577 557.488 142.648L558.965 143.045C559.344 143.145 559.765 143.282 560.229 143.457C560.698 143.633 561.146 143.872 561.572 144.175C562.003 144.473 562.358 144.857 562.637 145.325C562.917 145.794 563.056 146.369 563.056 147.051C563.056 147.837 562.85 148.547 562.438 149.182C562.031 149.816 561.435 150.321 560.649 150.695C559.867 151.069 558.918 151.256 557.801 151.256C556.759 151.256 555.857 151.088 555.095 150.751C554.337 150.415 553.74 149.946 553.305 149.345C552.874 148.744 552.63 148.045 552.573 147.25H554.391C554.439 147.799 554.623 148.254 554.945 148.614C555.272 148.969 555.684 149.234 556.181 149.409C556.683 149.58 557.223 149.665 557.801 149.665C558.473 149.665 559.077 149.556 559.612 149.338C560.147 149.116 560.57 148.808 560.883 148.415C561.195 148.017 561.352 147.553 561.352 147.023C561.352 146.54 561.217 146.147 560.947 145.844C560.677 145.541 560.322 145.295 559.881 145.105C559.441 144.916 558.965 144.75 558.454 144.608L556.664 144.097C555.528 143.77 554.628 143.304 553.965 142.697C553.302 142.091 552.971 141.298 552.971 140.318C552.971 139.504 553.191 138.794 553.631 138.188C554.077 137.577 554.673 137.103 555.421 136.767C556.174 136.426 557.015 136.256 557.943 136.256C558.88 136.256 559.713 136.424 560.443 136.76C561.172 137.091 561.749 137.546 562.176 138.124C562.606 138.701 562.834 139.357 562.857 140.091H561.153ZM577.657 141H575.895C575.791 140.493 575.609 140.048 575.348 139.665C575.093 139.281 574.78 138.959 574.411 138.699C574.046 138.434 573.642 138.235 573.196 138.102C572.751 137.97 572.287 137.903 571.804 137.903C570.924 137.903 570.126 138.126 569.411 138.571C568.701 139.016 568.135 139.672 567.714 140.538C567.297 141.405 567.089 142.468 567.089 143.727C567.089 144.987 567.297 146.05 567.714 146.916C568.135 147.783 568.701 148.438 569.411 148.884C570.126 149.329 570.924 149.551 571.804 149.551C572.287 149.551 572.751 149.485 573.196 149.352C573.642 149.22 574.046 149.023 574.411 148.763C574.78 148.498 575.093 148.173 575.348 147.79C575.609 147.402 575.791 146.956 575.895 146.455H577.657C577.524 147.198 577.283 147.863 576.932 148.45C576.582 149.037 576.146 149.537 575.625 149.949C575.105 150.356 574.52 150.666 573.871 150.879C573.227 151.092 572.538 151.199 571.804 151.199C570.564 151.199 569.461 150.896 568.495 150.29C567.529 149.684 566.769 148.822 566.215 147.705C565.661 146.587 565.384 145.261 565.384 143.727C565.384 142.193 565.661 140.867 566.215 139.75C566.769 138.633 567.529 137.771 568.495 137.165C569.461 136.559 570.564 136.256 571.804 136.256C572.538 136.256 573.227 136.362 573.871 136.575C574.52 136.788 575.105 137.101 575.625 137.513C576.146 137.92 576.582 138.417 576.932 139.004C577.283 139.587 577.524 140.252 577.657 141ZM592.207 141H590.446C590.342 140.493 590.16 140.048 589.899 139.665C589.644 139.281 589.331 138.959 588.962 138.699C588.597 138.434 588.192 138.235 587.747 138.102C587.302 137.97 586.838 137.903 586.355 137.903C585.475 137.903 584.677 138.126 583.962 138.571C583.252 139.016 582.686 139.672 582.264 140.538C581.848 141.405 581.639 142.468 581.639 143.727C581.639 144.987 581.848 146.05 582.264 146.916C582.686 147.783 583.252 148.438 583.962 148.884C584.677 149.329 585.475 149.551 586.355 149.551C586.838 149.551 587.302 149.485 587.747 149.352C588.192 149.22 588.597 149.023 588.962 148.763C589.331 148.498 589.644 148.173 589.899 147.79C590.16 147.402 590.342 146.956 590.446 146.455H592.207C592.075 147.198 591.833 147.863 591.483 148.45C591.133 149.037 590.697 149.537 590.176 149.949C589.655 150.356 589.071 150.666 588.422 150.879C587.778 151.092 587.089 151.199 586.355 151.199C585.115 151.199 584.011 150.896 583.046 150.29C582.08 149.684 581.32 148.822 580.766 147.705C580.212 146.587 579.935 145.261 579.935 143.727C579.935 142.193 580.212 140.867 580.766 139.75C581.32 138.633 582.08 137.771 583.046 137.165C584.011 136.559 585.115 136.256 586.355 136.256C587.089 136.256 587.778 136.362 588.422 136.575C589.071 136.788 589.655 137.101 590.176 137.513C590.697 137.92 591.133 138.417 591.483 139.004C591.833 139.587 592.075 140.252 592.207 141ZM597.443 146.273V155H596.122V147.594H596.071L593.983 148.957V147.696L596.16 146.273H597.443ZM600.215 151.812V151.676C600.215 150.994 600.343 150.406 600.598 149.912C600.854 149.418 601.216 149.037 601.685 148.77C602.154 148.503 602.705 148.369 603.338 148.369C603.821 148.369 604.255 148.446 604.638 148.599C605.025 148.75 605.353 148.969 605.623 149.256C605.895 149.543 606.104 149.891 606.249 150.3C606.394 150.706 606.466 151.165 606.466 151.676V151.812C606.466 152.494 606.338 153.082 606.083 153.577C605.83 154.071 605.469 154.452 605 154.719C604.534 154.986 603.98 155.119 603.338 155.119C602.878 155.119 602.456 155.045 602.073 154.898C601.689 154.75 601.358 154.533 601.08 154.246C600.804 153.959 600.591 153.612 600.441 153.206C600.29 152.797 600.215 152.332 600.215 151.812ZM601.6 151.676V151.812C601.6 152.153 601.638 152.46 601.715 152.733C601.794 153.003 601.908 153.234 602.056 153.428C602.206 153.618 602.39 153.764 602.605 153.866C602.821 153.966 603.066 154.016 603.338 154.016C603.614 154.016 603.858 153.966 604.071 153.866C604.287 153.764 604.471 153.618 604.621 153.428C604.772 153.234 604.885 153.003 604.962 152.733C605.042 152.46 605.081 152.153 605.081 151.812V151.676C605.081 151.344 605.043 151.043 604.966 150.773C604.89 150.503 604.777 150.271 604.63 150.078C604.482 149.882 604.3 149.732 604.084 149.626C603.868 149.521 603.62 149.469 603.338 149.469C603.066 149.469 602.821 149.521 602.605 149.626C602.392 149.729 602.211 149.876 602.06 150.07C601.909 150.263 601.794 150.496 601.715 150.768C601.638 151.038 601.6 151.341 601.6 151.676ZM602.657 157.318V146.273H604.02V157.318H602.657ZM608.67 155V146.273H611.866C612.486 146.273 612.998 146.375 613.405 146.58C613.811 146.781 614.115 147.055 614.317 147.402C614.518 147.746 614.619 148.134 614.619 148.565C614.619 148.929 614.552 149.236 614.419 149.486C614.285 149.733 614.106 149.932 613.882 150.082C613.66 150.23 613.416 150.338 613.149 150.406V150.491C613.439 150.506 613.722 150.599 613.997 150.773C614.275 150.943 614.506 151.186 614.687 151.501C614.869 151.817 614.96 152.2 614.96 152.652C614.96 153.098 614.855 153.499 614.645 153.854C614.437 154.206 614.116 154.486 613.682 154.693C613.247 154.898 612.692 155 612.016 155H608.67ZM609.987 153.871H611.888C612.518 153.871 612.97 153.749 613.243 153.504C613.516 153.26 613.652 152.955 613.652 152.588C613.652 152.312 613.582 152.06 613.443 151.83C613.304 151.599 613.105 151.416 612.847 151.28C612.591 151.143 612.287 151.075 611.935 151.075H609.987V153.871ZM609.987 150.048H611.751C612.047 150.048 612.312 149.991 612.548 149.878C612.787 149.764 612.976 149.605 613.115 149.401C613.257 149.193 613.328 148.949 613.328 148.668C613.328 148.307 613.202 148.004 612.949 147.76C612.696 147.516 612.308 147.393 611.785 147.393H609.987V150.048Z" fill="black"/>
<circle cx="28" cy="28" r="27" transform="matrix(-1 0 0 1 739 46)" stroke="black" stroke-width="2"/>
<line y1="-1" x2="12" y2="-1" transform="matrix(-1 0 0 1 683 75)" stroke="black" stroke-width="2"/>
<line y1="-1" x2="58" y2="-1" transform="matrix(-1 0 0 1 642 75)" stroke="black" stroke-width="2" stroke-dasharray="4 4"/>
<rect x="-1" y="1" width="30" height="14" transform="matrix(-1 0 0 1 671 66)" stroke="black" stroke-width="2"/>
<path d="M732 76.4286L728.991 69.5437C726.36 63.5248 717.998 63.0662 714.724 68.7613L706.589 82.915C703.512 88.2701 695.784 88.2654 692.713 82.9064L689 76.4286" stroke="black" stroke-width="2"/>
<path d="M646.087 101V99.7216L653.928 88.017H646.001V86.4545H656.03V87.733L648.189 99.4375H656.115V101H646.087ZM658.267 105V96.2727H661.463C662.082 96.2727 662.595 96.375 663.001 96.5795C663.408 96.7812 663.712 97.0554 663.913 97.402C664.115 97.7457 664.216 98.1335 664.216 98.5653C664.216 98.929 664.149 99.2358 664.016 99.4858C663.882 99.733 663.703 99.9318 663.479 100.082C663.257 100.23 663.013 100.338 662.746 100.406V100.491C663.036 100.506 663.318 100.599 663.594 100.773C663.872 100.943 664.102 101.186 664.284 101.501C664.466 101.817 664.557 102.2 664.557 102.652C664.557 103.098 664.452 103.499 664.242 103.854C664.034 104.206 663.713 104.486 663.278 104.693C662.844 104.898 662.288 105 661.612 105H658.267ZM659.584 103.871H661.484C662.115 103.871 662.567 103.749 662.84 103.504C663.112 103.26 663.249 102.955 663.249 102.588C663.249 102.312 663.179 102.06 663.04 101.83C662.901 101.599 662.702 101.416 662.443 101.28C662.188 101.143 661.884 101.075 661.531 101.075H659.584V103.871ZM659.584 100.048H661.348C661.644 100.048 661.909 99.9915 662.145 99.8778C662.384 99.7642 662.572 99.6051 662.712 99.4006C662.854 99.1932 662.925 98.9489 662.925 98.6676C662.925 98.3068 662.798 98.0043 662.545 97.7599C662.293 97.5156 661.905 97.3935 661.382 97.3935H659.584V100.048ZM669.67 96.2727V105H668.349V97.5938H668.298L666.21 98.9574V97.696L668.388 96.2727H669.67ZM645.05 125V123.722L652.89 112.017H644.964V110.455H654.993V111.733L647.152 123.438H655.078V125H645.05ZM657.23 129V120.273H660.426C661.045 120.273 661.558 120.375 661.964 120.58C662.371 120.781 662.675 121.055 662.876 121.402C663.078 121.746 663.179 122.134 663.179 122.565C663.179 122.929 663.112 123.236 662.979 123.486C662.845 123.733 662.666 123.932 662.442 124.082C662.22 124.23 661.976 124.338 661.709 124.406V124.491C661.998 124.506 662.281 124.599 662.557 124.773C662.835 124.943 663.065 125.186 663.247 125.501C663.429 125.817 663.52 126.2 663.52 126.652C663.52 127.098 663.415 127.499 663.204 127.854C662.997 128.206 662.676 128.486 662.241 128.693C661.807 128.898 661.251 129 660.575 129H657.23ZM658.547 127.871H660.447C661.078 127.871 661.53 127.749 661.802 127.504C662.075 127.26 662.212 126.955 662.212 126.588C662.212 126.312 662.142 126.06 662.003 125.83C661.864 125.599 661.665 125.416 661.406 125.28C661.15 125.143 660.846 125.075 660.494 125.075H658.547V127.871ZM658.547 124.048H660.311C660.606 124.048 660.872 123.991 661.108 123.878C661.346 123.764 661.535 123.605 661.675 123.401C661.817 123.193 661.888 122.949 661.888 122.668C661.888 122.307 661.761 122.004 661.508 121.76C661.256 121.516 660.868 121.393 660.345 121.393H658.547V124.048ZM668.361 129.145C667.687 129.142 667.112 128.964 666.635 128.612C666.157 128.26 665.792 127.747 665.54 127.074C665.287 126.401 665.16 125.589 665.16 124.641C665.16 123.695 665.287 122.886 665.54 122.216C665.795 121.545 666.162 121.034 666.639 120.682C667.119 120.33 667.693 120.153 668.361 120.153C669.028 120.153 669.601 120.331 670.078 120.686C670.555 121.038 670.92 121.55 671.173 122.22C671.429 122.888 671.557 123.695 671.557 124.641C671.557 125.592 671.43 126.405 671.177 127.078C670.924 127.749 670.559 128.261 670.082 128.616C669.605 128.969 669.031 129.145 668.361 129.145ZM668.361 128.007C668.951 128.007 669.413 127.719 669.746 127.142C670.081 126.565 670.248 125.732 670.248 124.641C670.248 123.916 670.172 123.304 670.018 122.804C669.868 122.301 669.65 121.92 669.366 121.662C669.085 121.401 668.75 121.27 668.361 121.27C667.773 121.27 667.311 121.56 666.976 122.139C666.64 122.719 666.471 123.553 666.469 124.641C666.469 125.368 666.544 125.983 666.694 126.486C666.848 126.986 667.065 127.365 667.346 127.624C667.628 127.879 667.966 128.007 668.361 128.007Z" fill="black"/>
</svg>
