<svg width="739" height="158" viewBox="0 0 739 158" fill="none" xmlns="http://www.w3.org/2000/svg">
<circle cx="28" cy="74" r="27" stroke="black" stroke-width="2"/>
<line x1="156" y1="74" x2="584.001" y2="74" stroke="black" stroke-width="2"/>
<line x1="56" y1="74" x2="68" y2="74" stroke="black" stroke-width="2"/>
<line x1="97" y1="74" x2="155" y2="74" stroke="black" stroke-width="2" stroke-dasharray="4 4"/>
<line x1="156" y1="125" x2="156" y2="25" stroke="black" stroke-width="2"/>
<line x1="583" y1="125" x2="583" y2="25" stroke="black" stroke-width="2"/>
<rect x="67" y="67" width="30" height="14" stroke="black" stroke-width="2"/>
<path d="M7 76.4286L10.0093 69.5437C12.6402 63.5248 21.0024 63.0662 24.2757 68.7613L32.4105 82.915C35.4884 88.2701 43.2161 88.2654 46.2874 82.9064L50 76.4286" stroke="black" stroke-width="2"/>
<path d="M133.846 133.091C133.761 132.371 133.415 131.812 132.809 131.415C132.203 131.017 131.46 130.818 130.579 130.818C129.935 130.818 129.372 130.922 128.889 131.131C128.411 131.339 128.036 131.625 127.767 131.99C127.501 132.355 127.369 132.769 127.369 133.233C127.369 133.621 127.461 133.955 127.646 134.234C127.835 134.509 128.077 134.739 128.37 134.923C128.664 135.103 128.972 135.252 129.294 135.371C129.616 135.484 129.911 135.577 130.181 135.648L131.659 136.045C132.037 136.145 132.459 136.282 132.923 136.457C133.392 136.633 133.839 136.872 134.265 137.175C134.696 137.473 135.051 137.857 135.331 138.325C135.61 138.794 135.75 139.369 135.75 140.051C135.75 140.837 135.544 141.547 135.132 142.182C134.724 142.816 134.128 143.321 133.342 143.695C132.561 144.069 131.611 144.256 130.494 144.256C129.452 144.256 128.55 144.088 127.788 143.751C127.03 143.415 126.434 142.946 125.998 142.345C125.567 141.744 125.323 141.045 125.267 140.25H127.085C127.132 140.799 127.317 141.254 127.639 141.614C127.965 141.969 128.377 142.234 128.875 142.409C129.376 142.58 129.916 142.665 130.494 142.665C131.166 142.665 131.77 142.556 132.305 142.338C132.84 142.116 133.264 141.808 133.576 141.415C133.889 141.017 134.045 140.553 134.045 140.023C134.045 139.54 133.91 139.147 133.64 138.844C133.37 138.541 133.015 138.295 132.575 138.105C132.134 137.916 131.659 137.75 131.147 137.608L129.358 137.097C128.221 136.77 127.322 136.304 126.659 135.697C125.996 135.091 125.664 134.298 125.664 133.318C125.664 132.504 125.884 131.794 126.325 131.188C126.77 130.577 127.367 130.103 128.115 129.767C128.867 129.426 129.708 129.256 130.636 129.256C131.573 129.256 132.407 129.424 133.136 129.76C133.865 130.091 134.443 130.546 134.869 131.124C135.3 131.701 135.527 132.357 135.551 133.091H133.846ZM150.35 134H148.589C148.485 133.493 148.302 133.048 148.042 132.665C147.786 132.281 147.474 131.959 147.104 131.699C146.74 131.434 146.335 131.235 145.89 131.102C145.445 130.97 144.981 130.903 144.498 130.903C143.617 130.903 142.819 131.126 142.104 131.571C141.394 132.016 140.828 132.672 140.407 133.538C139.99 134.405 139.782 135.468 139.782 136.727C139.782 137.987 139.99 139.05 140.407 139.916C140.828 140.783 141.394 141.438 142.104 141.884C142.819 142.329 143.617 142.551 144.498 142.551C144.981 142.551 145.445 142.485 145.89 142.352C146.335 142.22 146.74 142.023 147.104 141.763C147.474 141.498 147.786 141.173 148.042 140.79C148.302 140.402 148.485 139.956 148.589 139.455H150.35C150.217 140.198 149.976 140.863 149.626 141.45C149.275 142.037 148.84 142.537 148.319 142.949C147.798 143.356 147.213 143.666 146.565 143.879C145.921 144.092 145.232 144.199 144.498 144.199C143.257 144.199 142.154 143.896 141.188 143.29C140.222 142.684 139.462 141.822 138.908 140.705C138.354 139.587 138.077 138.261 138.077 136.727C138.077 135.193 138.354 133.867 138.908 132.75C139.462 131.633 140.222 130.771 141.188 130.165C142.154 129.559 143.257 129.256 144.498 129.256C145.232 129.256 145.921 129.362 146.565 129.575C147.213 129.788 147.798 130.101 148.319 130.513C148.84 130.92 149.275 131.417 149.626 132.004C149.976 132.587 150.217 133.252 150.35 134ZM164.901 134H163.139C163.035 133.493 162.853 133.048 162.593 132.665C162.337 132.281 162.024 131.959 161.655 131.699C161.291 131.434 160.886 131.235 160.441 131.102C159.996 130.97 159.532 130.903 159.049 130.903C158.168 130.903 157.37 131.126 156.655 131.571C155.945 132.016 155.379 132.672 154.958 133.538C154.541 134.405 154.333 135.468 154.333 136.727C154.333 137.987 154.541 139.05 154.958 139.916C155.379 140.783 155.945 141.438 156.655 141.884C157.37 142.329 158.168 142.551 159.049 142.551C159.532 142.551 159.996 142.485 160.441 142.352C160.886 142.22 161.291 142.023 161.655 141.763C162.024 141.498 162.337 141.173 162.593 140.79C162.853 140.402 163.035 139.956 163.139 139.455H164.901C164.768 140.198 164.527 140.863 164.176 141.45C163.826 142.037 163.39 142.537 162.87 142.949C162.349 143.356 161.764 143.666 161.115 143.879C160.471 144.092 159.782 144.199 159.049 144.199C157.808 144.199 156.705 143.896 155.739 143.29C154.773 142.684 154.013 141.822 153.459 140.705C152.905 139.587 152.628 138.261 152.628 136.727C152.628 135.193 152.905 133.867 153.459 132.75C154.013 131.633 154.773 130.771 155.739 130.165C156.705 129.559 157.808 129.256 159.049 129.256C159.782 129.256 160.471 129.362 161.115 129.575C161.764 129.788 162.349 130.101 162.87 130.513C163.39 130.92 163.826 131.417 164.176 132.004C164.527 132.587 164.768 133.252 164.901 134ZM169.864 148.119C169.278 148.119 168.756 148.018 168.295 147.817C167.838 147.615 167.476 147.335 167.209 146.977C166.945 146.616 166.802 146.199 166.783 145.724H168.121C168.138 145.983 168.224 146.207 168.381 146.398C168.54 146.585 168.747 146.73 169.003 146.832C169.258 146.935 169.543 146.986 169.855 146.986C170.199 146.986 170.503 146.926 170.767 146.807C171.034 146.687 171.243 146.521 171.393 146.308C171.544 146.092 171.619 145.844 171.619 145.562C171.619 145.27 171.544 145.013 171.393 144.791C171.246 144.567 171.028 144.391 170.741 144.263C170.457 144.135 170.114 144.071 169.71 144.071H168.973V142.997H169.71C170.034 142.997 170.318 142.939 170.562 142.822C170.81 142.706 171.003 142.544 171.142 142.337C171.281 142.126 171.351 141.881 171.351 141.599C171.351 141.33 171.29 141.095 171.168 140.896C171.048 140.695 170.878 140.537 170.656 140.423C170.437 140.31 170.179 140.253 169.881 140.253C169.596 140.253 169.331 140.305 169.084 140.411C168.839 140.513 168.641 140.661 168.487 140.854C168.334 141.044 168.251 141.273 168.24 141.54H166.966C166.98 141.068 167.119 140.653 167.383 140.295C167.65 139.937 168.003 139.658 168.44 139.456C168.878 139.254 169.364 139.153 169.898 139.153C170.457 139.153 170.94 139.263 171.346 139.482C171.756 139.697 172.071 139.986 172.293 140.347C172.517 140.707 172.628 141.102 172.625 141.531C172.628 142.02 172.491 142.435 172.216 142.776C171.943 143.116 171.579 143.345 171.125 143.462V143.53C171.704 143.618 172.153 143.848 172.471 144.22C172.793 144.592 172.952 145.054 172.949 145.605C172.952 146.085 172.818 146.516 172.548 146.896C172.281 147.277 171.916 147.577 171.453 147.795C170.99 148.011 170.46 148.119 169.864 148.119ZM174.971 144.812V144.676C174.971 143.994 175.099 143.406 175.354 142.912C175.61 142.418 175.972 142.037 176.441 141.77C176.91 141.503 177.461 141.369 178.094 141.369C178.577 141.369 179.01 141.446 179.394 141.599C179.78 141.75 180.108 141.969 180.378 142.256C180.651 142.543 180.86 142.891 181.005 143.3C181.15 143.706 181.222 144.165 181.222 144.676V144.812C181.222 145.494 181.094 146.082 180.839 146.577C180.586 147.071 180.225 147.452 179.756 147.719C179.29 147.986 178.736 148.119 178.094 148.119C177.634 148.119 177.212 148.045 176.829 147.898C176.445 147.75 176.114 147.533 175.836 147.246C175.56 146.959 175.347 146.612 175.197 146.206C175.046 145.797 174.971 145.332 174.971 144.812ZM176.356 144.676V144.812C176.356 145.153 176.394 145.46 176.471 145.733C176.55 146.003 176.664 146.234 176.812 146.428C176.962 146.618 177.145 146.764 177.361 146.866C177.577 146.966 177.822 147.016 178.094 147.016C178.37 147.016 178.614 146.966 178.827 146.866C179.043 146.764 179.226 146.618 179.377 146.428C179.528 146.234 179.641 146.003 179.718 145.733C179.797 145.46 179.837 145.153 179.837 144.812V144.676C179.837 144.344 179.799 144.043 179.722 143.773C179.645 143.503 179.533 143.271 179.385 143.078C179.238 142.882 179.056 142.732 178.84 142.626C178.624 142.521 178.376 142.469 178.094 142.469C177.822 142.469 177.577 142.521 177.361 142.626C177.148 142.729 176.966 142.876 176.816 143.07C176.665 143.263 176.55 143.496 176.471 143.768C176.394 144.038 176.356 144.341 176.356 144.676ZM177.412 150.318V139.273H178.776V150.318H177.412ZM184.163 148H182.766L185.906 139.273H187.428L190.568 148H189.171L186.703 140.858H186.635L184.163 148ZM184.398 144.582H188.932V145.69H184.398V144.582Z" fill="black"/>
<path d="M69.0164 101V99.7216L76.8573 88.017H68.9312V86.4545H78.9596V87.733L71.1187 99.4375H79.0448V101H69.0164ZM81.934 105H80.5363L83.6769 96.2727H85.1982L88.3388 105H86.9411L84.4738 97.858H84.4056L81.934 105ZM82.1684 101.582H86.7025V102.69H82.1684V101.582ZM92.7407 96.2727V105H91.4197V97.5938H91.3686L89.2805 98.9574V97.696L91.4581 96.2727H92.7407Z" fill="black"/>
<path d="M579.257 15V0.454545H584.343C585.356 0.454545 586.192 0.629735 586.85 0.980114C587.508 1.32576 587.998 1.79214 588.32 2.37926C588.642 2.96165 588.803 3.60795 588.803 4.31818C588.803 4.94318 588.692 5.45928 588.469 5.86648C588.251 6.27367 587.962 6.59564 587.603 6.83239C587.248 7.06913 586.862 7.24432 586.445 7.35795V7.5C586.89 7.52841 587.337 7.68466 587.787 7.96875C588.237 8.25284 588.614 8.66004 588.917 9.19034C589.22 9.72064 589.371 10.3693 589.371 11.1364C589.371 11.8655 589.205 12.5213 588.874 13.1037C588.542 13.6861 588.019 14.1477 587.304 14.4886C586.589 14.8295 585.659 15 584.513 15H579.257ZM581.019 13.4375H584.513C585.664 13.4375 586.48 13.215 586.963 12.7699C587.451 12.3201 587.695 11.7756 587.695 11.1364C587.695 10.6439 587.569 10.1894 587.319 9.77273C587.068 9.35133 586.71 9.01515 586.246 8.7642C585.782 8.50852 585.233 8.38068 584.598 8.38068H581.019V13.4375ZM581.019 6.84659H584.286C584.816 6.84659 585.294 6.74242 585.721 6.53409C586.151 6.32576 586.492 6.0322 586.743 5.65341C586.999 5.27462 587.127 4.82955 587.127 4.31818C587.127 3.67898 586.904 3.13684 586.459 2.69176C586.014 2.24195 585.309 2.01705 584.343 2.01705H581.019V6.84659Z" fill="black"/>
<path d="M150.6 15H148.754L154.094 0.454545H155.913L161.254 15H159.407L155.06 2.75568H154.947L150.6 15ZM151.282 9.31818H158.725V10.8807H151.282V9.31818Z" fill="black"/>
<path d="M560.122 140.091C560.036 139.371 559.691 138.812 559.085 138.415C558.479 138.017 557.735 137.818 556.854 137.818C556.211 137.818 555.647 137.922 555.164 138.131C554.686 138.339 554.312 138.625 554.042 138.99C553.777 139.355 553.644 139.769 553.644 140.233C553.644 140.621 553.737 140.955 553.921 141.234C554.111 141.509 554.352 141.739 554.646 141.923C554.939 142.103 555.247 142.252 555.569 142.371C555.891 142.484 556.187 142.577 556.457 142.648L557.934 143.045C558.313 143.145 558.734 143.282 559.198 143.457C559.667 143.633 560.114 143.872 560.541 144.175C560.971 144.473 561.327 144.857 561.606 145.325C561.885 145.794 562.025 146.369 562.025 147.051C562.025 147.837 561.819 148.547 561.407 149.182C561 149.816 560.403 150.321 559.617 150.695C558.836 151.069 557.887 151.256 556.769 151.256C555.728 151.256 554.826 151.088 554.063 150.751C553.306 150.415 552.709 149.946 552.274 149.345C551.843 148.744 551.599 148.045 551.542 147.25H553.36C553.408 147.799 553.592 148.254 553.914 148.614C554.241 148.969 554.653 149.234 555.15 149.409C555.652 149.58 556.192 149.665 556.769 149.665C557.442 149.665 558.045 149.556 558.58 149.338C559.115 149.116 559.539 148.808 559.852 148.415C560.164 148.017 560.32 147.553 560.32 147.023C560.32 146.54 560.185 146.147 559.916 145.844C559.646 145.541 559.291 145.295 558.85 145.105C558.41 144.916 557.934 144.75 557.423 144.608L555.633 144.097C554.497 143.77 553.597 143.304 552.934 142.697C552.271 142.091 551.94 141.298 551.94 140.318C551.94 139.504 552.16 138.794 552.6 138.188C553.045 137.577 553.642 137.103 554.39 136.767C555.143 136.426 555.983 136.256 556.911 136.256C557.849 136.256 558.682 136.424 559.411 136.76C560.14 137.091 560.718 137.546 561.144 138.124C561.575 138.701 561.802 139.357 561.826 140.091H560.122ZM576.625 141H574.864C574.76 140.493 574.578 140.048 574.317 139.665C574.062 139.281 573.749 138.959 573.38 138.699C573.015 138.434 572.61 138.235 572.165 138.102C571.72 137.97 571.256 137.903 570.773 137.903C569.892 137.903 569.095 138.126 568.38 138.571C567.669 139.016 567.104 139.672 566.682 140.538C566.266 141.405 566.057 142.468 566.057 143.727C566.057 144.987 566.266 146.05 566.682 146.916C567.104 147.783 567.669 148.438 568.38 148.884C569.095 149.329 569.892 149.551 570.773 149.551C571.256 149.551 571.72 149.485 572.165 149.352C572.61 149.22 573.015 149.023 573.38 148.763C573.749 148.498 574.062 148.173 574.317 147.79C574.578 147.402 574.76 146.956 574.864 146.455H576.625C576.493 147.198 576.251 147.863 575.901 148.45C575.551 149.037 575.115 149.537 574.594 149.949C574.073 150.356 573.489 150.666 572.84 150.879C572.196 151.092 571.507 151.199 570.773 151.199C569.533 151.199 568.429 150.896 567.464 150.29C566.498 149.684 565.738 148.822 565.184 147.705C564.63 146.587 564.353 145.261 564.353 143.727C564.353 142.193 564.63 140.867 565.184 139.75C565.738 138.633 566.498 137.771 567.464 137.165C568.429 136.559 569.533 136.256 570.773 136.256C571.507 136.256 572.196 136.362 572.84 136.575C573.489 136.788 574.073 137.101 574.594 137.513C575.115 137.92 575.551 138.417 575.901 139.004C576.251 139.587 576.493 140.252 576.625 141ZM591.176 141H589.415C589.311 140.493 589.128 140.048 588.868 139.665C588.612 139.281 588.3 138.959 587.93 138.699C587.566 138.434 587.161 138.235 586.716 138.102C586.271 137.97 585.807 137.903 585.324 137.903C584.443 137.903 583.645 138.126 582.93 138.571C582.22 139.016 581.654 139.672 581.233 140.538C580.816 141.405 580.608 142.468 580.608 143.727C580.608 144.987 580.816 146.05 581.233 146.916C581.654 147.783 582.22 148.438 582.93 148.884C583.645 149.329 584.443 149.551 585.324 149.551C585.807 149.551 586.271 149.485 586.716 149.352C587.161 149.22 587.566 149.023 587.93 148.763C588.3 148.498 588.612 148.173 588.868 147.79C589.128 147.402 589.311 146.956 589.415 146.455H591.176C591.044 147.198 590.802 147.863 590.452 148.45C590.101 149.037 589.666 149.537 589.145 149.949C588.624 150.356 588.039 150.666 587.391 150.879C586.747 151.092 586.058 151.199 585.324 151.199C584.083 151.199 582.98 150.896 582.014 150.29C581.048 149.684 580.288 148.822 579.734 147.705C579.18 146.587 578.903 145.261 578.903 143.727C578.903 142.193 579.18 140.867 579.734 139.75C580.288 138.633 581.048 137.771 582.014 137.165C582.98 136.559 584.083 136.256 585.324 136.256C586.058 136.256 586.747 136.362 587.391 136.575C588.039 136.788 588.624 137.101 589.145 137.513C589.666 137.92 590.101 138.417 590.452 139.004C590.802 139.587 591.044 140.252 591.176 141ZM596.139 155.119C595.554 155.119 595.031 155.018 594.571 154.817C594.113 154.615 593.751 154.335 593.484 153.977C593.22 153.616 593.078 153.199 593.058 152.724H594.396C594.413 152.983 594.5 153.207 594.656 153.398C594.815 153.585 595.022 153.73 595.278 153.832C595.534 153.935 595.818 153.986 596.13 153.986C596.474 153.986 596.778 153.926 597.042 153.807C597.309 153.687 597.518 153.521 597.669 153.308C597.819 153.092 597.895 152.844 597.895 152.562C597.895 152.27 597.819 152.013 597.669 151.791C597.521 151.567 597.304 151.391 597.017 151.263C596.733 151.135 596.389 151.071 595.986 151.071H595.248V149.997H595.986C596.309 149.997 596.593 149.939 596.838 149.822C597.085 149.706 597.278 149.544 597.417 149.337C597.557 149.126 597.626 148.881 597.626 148.599C597.626 148.33 597.565 148.095 597.443 147.896C597.324 147.695 597.153 147.537 596.932 147.423C596.713 147.31 596.454 147.253 596.156 147.253C595.872 147.253 595.606 147.305 595.359 147.411C595.115 147.513 594.916 147.661 594.763 147.854C594.609 148.044 594.527 148.273 594.515 148.54H593.241C593.255 148.068 593.395 147.653 593.659 147.295C593.926 146.937 594.278 146.658 594.716 146.456C595.153 146.254 595.639 146.153 596.173 146.153C596.733 146.153 597.216 146.263 597.622 146.482C598.031 146.697 598.346 146.986 598.568 147.347C598.792 147.707 598.903 148.102 598.9 148.531C598.903 149.02 598.767 149.435 598.491 149.776C598.218 150.116 597.855 150.345 597.4 150.462V150.53C597.98 150.618 598.429 150.848 598.747 151.22C599.068 151.592 599.227 152.054 599.224 152.605C599.227 153.085 599.093 153.516 598.824 153.896C598.557 154.277 598.191 154.577 597.728 154.795C597.265 155.011 596.736 155.119 596.139 155.119ZM601.246 151.812V151.676C601.246 150.994 601.374 150.406 601.63 149.912C601.885 149.418 602.248 149.037 602.716 148.77C603.185 148.503 603.736 148.369 604.37 148.369C604.853 148.369 605.286 148.446 605.669 148.599C606.056 148.75 606.384 148.969 606.654 149.256C606.926 149.543 607.135 149.891 607.28 150.3C607.425 150.706 607.498 151.165 607.498 151.676V151.812C607.498 152.494 607.37 153.082 607.114 153.577C606.861 154.071 606.5 154.452 606.032 154.719C605.566 154.986 605.012 155.119 604.37 155.119C603.909 155.119 603.488 155.045 603.104 154.898C602.721 154.75 602.39 154.533 602.111 154.246C601.836 153.959 601.623 153.612 601.472 153.206C601.321 152.797 601.246 152.332 601.246 151.812ZM602.631 151.676V151.812C602.631 152.153 602.669 152.46 602.746 152.733C602.826 153.003 602.939 153.234 603.087 153.428C603.238 153.618 603.421 153.764 603.637 153.866C603.853 153.966 604.097 154.016 604.37 154.016C604.645 154.016 604.89 153.966 605.103 153.866C605.319 153.764 605.502 153.618 605.652 153.428C605.803 153.234 605.917 153.003 605.993 152.733C606.073 152.46 606.113 152.153 606.113 151.812V151.676C606.113 151.344 606.074 151.043 605.998 150.773C605.921 150.503 605.809 150.271 605.661 150.078C605.513 149.882 605.331 149.732 605.115 149.626C604.9 149.521 604.651 149.469 604.37 149.469C604.097 149.469 603.853 149.521 603.637 149.626C603.424 149.729 603.242 149.876 603.091 150.07C602.941 150.263 602.826 150.496 602.746 150.768C602.669 151.038 602.631 151.341 602.631 151.676ZM603.688 157.318V146.273H605.051V157.318H603.688ZM609.702 155V146.273H612.898C613.517 146.273 614.03 146.375 614.436 146.58C614.842 146.781 615.146 147.055 615.348 147.402C615.55 147.746 615.65 148.134 615.65 148.565C615.65 148.929 615.584 149.236 615.45 149.486C615.317 149.733 615.138 149.932 614.913 150.082C614.692 150.23 614.447 150.338 614.18 150.406V150.491C614.47 150.506 614.753 150.599 615.028 150.773C615.307 150.943 615.537 151.186 615.719 151.501C615.9 151.817 615.991 152.2 615.991 152.652C615.991 153.098 615.886 153.499 615.676 153.854C615.469 154.206 615.148 154.486 614.713 154.693C614.278 154.898 613.723 155 613.047 155H609.702ZM611.018 153.871H612.919C613.55 153.871 614.001 153.749 614.274 153.504C614.547 153.26 614.683 152.955 614.683 152.588C614.683 152.312 614.614 152.06 614.474 151.83C614.335 151.599 614.136 151.416 613.878 151.28C613.622 151.143 613.318 151.075 612.966 151.075H611.018V153.871ZM611.018 150.048H612.783C613.078 150.048 613.344 149.991 613.579 149.878C613.818 149.764 614.007 149.605 614.146 149.401C614.288 149.193 614.359 148.949 614.359 148.668C614.359 148.307 614.233 148.004 613.98 147.76C613.727 147.516 613.339 147.393 612.817 147.393H611.018V150.048Z" fill="black"/>
<circle cx="28" cy="28" r="27" transform="matrix(-1 0 0 1 739 46)" stroke="black" stroke-width="2"/>
<line y1="-1" x2="12" y2="-1" transform="matrix(-1 0 0 1 683 75)" stroke="black" stroke-width="2"/>
<line y1="-1" x2="58" y2="-1" transform="matrix(-1 0 0 1 642 75)" stroke="black" stroke-width="2" stroke-dasharray="4 4"/>
<rect x="-1" y="1" width="30" height="14" transform="matrix(-1 0 0 1 671 66)" stroke="black" stroke-width="2"/>
<path d="M732 76.4286L728.991 69.5437C726.36 63.5248 717.998 63.0662 714.724 68.7613L706.589 82.915C703.512 88.2701 695.784 88.2654 692.713 82.9064L689 76.4286" stroke="black" stroke-width="2"/>
<path d="M646.016 101V99.7216L653.857 88.017H645.931V86.4545H655.96V87.733L648.119 99.4375H656.045V101H646.016ZM658.934 105H657.536L660.677 96.2727H662.198L665.339 105H663.941L661.474 97.858H661.406L658.934 105ZM659.168 101.582H663.702V102.69H659.168V101.582ZM669.741 96.2727V105H668.42V97.5938H668.369L666.28 98.9574V97.696L668.458 96.2727H669.741Z" fill="black"/>
</svg>
