<svg width="739" height="159" viewBox="0 0 739 159" fill="none" xmlns="http://www.w3.org/2000/svg">
<circle cx="28" cy="74" r="27" stroke="black" stroke-width="2"/>
<line x1="156" y1="74" x2="584.001" y2="74" stroke="black" stroke-width="2"/>
<line x1="56" y1="74" x2="68" y2="74" stroke="black" stroke-width="2"/>
<line x1="97" y1="74" x2="155" y2="74" stroke="black" stroke-width="2" stroke-dasharray="4 4"/>
<line x1="156" y1="125" x2="156" y2="25" stroke="black" stroke-width="2"/>
<line x1="583" y1="125" x2="583" y2="25" stroke="black" stroke-width="2"/>
<rect x="67" y="67" width="30" height="14" stroke="black" stroke-width="2"/>
<path d="M7 76.4286L10.0093 69.5437C12.6402 63.5248 21.0024 63.0662 24.2757 68.7613L32.4105 82.915C35.4884 88.2701 43.2161 88.2654 46.2874 82.9064L50 76.4286" stroke="black" stroke-width="2"/>
<path d="M133.846 137.091C133.761 136.371 133.415 135.812 132.809 135.415C132.203 135.017 131.46 134.818 130.579 134.818C129.935 134.818 129.372 134.922 128.889 135.131C128.411 135.339 128.036 135.625 127.767 135.99C127.501 136.355 127.369 136.769 127.369 137.233C127.369 137.621 127.461 137.955 127.646 138.234C127.835 138.509 128.077 138.739 128.37 138.923C128.664 139.103 128.972 139.252 129.294 139.371C129.616 139.484 129.911 139.577 130.181 139.648L131.659 140.045C132.037 140.145 132.459 140.282 132.923 140.457C133.392 140.633 133.839 140.872 134.265 141.175C134.696 141.473 135.051 141.857 135.331 142.325C135.61 142.794 135.75 143.369 135.75 144.051C135.75 144.837 135.544 145.547 135.132 146.182C134.724 146.816 134.128 147.321 133.342 147.695C132.561 148.069 131.611 148.256 130.494 148.256C129.452 148.256 128.55 148.088 127.788 147.751C127.03 147.415 126.434 146.946 125.998 146.345C125.567 145.744 125.323 145.045 125.267 144.25H127.085C127.132 144.799 127.317 145.254 127.639 145.614C127.965 145.969 128.377 146.234 128.875 146.409C129.376 146.58 129.916 146.665 130.494 146.665C131.166 146.665 131.77 146.556 132.305 146.338C132.84 146.116 133.264 145.808 133.576 145.415C133.889 145.017 134.045 144.553 134.045 144.023C134.045 143.54 133.91 143.147 133.64 142.844C133.37 142.541 133.015 142.295 132.575 142.105C132.134 141.916 131.659 141.75 131.147 141.608L129.358 141.097C128.221 140.77 127.322 140.304 126.659 139.697C125.996 139.091 125.664 138.298 125.664 137.318C125.664 136.504 125.884 135.794 126.325 135.188C126.77 134.577 127.367 134.103 128.115 133.767C128.867 133.426 129.708 133.256 130.636 133.256C131.573 133.256 132.407 133.424 133.136 133.76C133.865 134.091 134.443 134.546 134.869 135.124C135.3 135.701 135.527 136.357 135.551 137.091H133.846ZM150.35 138H148.589C148.485 137.493 148.302 137.048 148.042 136.665C147.786 136.281 147.474 135.959 147.104 135.699C146.74 135.434 146.335 135.235 145.89 135.102C145.445 134.97 144.981 134.903 144.498 134.903C143.617 134.903 142.819 135.126 142.104 135.571C141.394 136.016 140.828 136.672 140.407 137.538C139.99 138.405 139.782 139.468 139.782 140.727C139.782 141.987 139.99 143.05 140.407 143.916C140.828 144.783 141.394 145.438 142.104 145.884C142.819 146.329 143.617 146.551 144.498 146.551C144.981 146.551 145.445 146.485 145.89 146.352C146.335 146.22 146.74 146.023 147.104 145.763C147.474 145.498 147.786 145.173 148.042 144.79C148.302 144.402 148.485 143.956 148.589 143.455H150.35C150.217 144.198 149.976 144.863 149.626 145.45C149.275 146.037 148.84 146.537 148.319 146.949C147.798 147.356 147.213 147.666 146.565 147.879C145.921 148.092 145.232 148.199 144.498 148.199C143.257 148.199 142.154 147.896 141.188 147.29C140.222 146.684 139.462 145.822 138.908 144.705C138.354 143.587 138.077 142.261 138.077 140.727C138.077 139.193 138.354 137.867 138.908 136.75C139.462 135.633 140.222 134.771 141.188 134.165C142.154 133.559 143.257 133.256 144.498 133.256C145.232 133.256 145.921 133.362 146.565 133.575C147.213 133.788 147.798 134.101 148.319 134.513C148.84 134.92 149.275 135.417 149.626 136.004C149.976 136.587 150.217 137.252 150.35 138ZM164.901 138H163.139C163.035 137.493 162.853 137.048 162.593 136.665C162.337 136.281 162.024 135.959 161.655 135.699C161.291 135.434 160.886 135.235 160.441 135.102C159.996 134.97 159.532 134.903 159.049 134.903C158.168 134.903 157.37 135.126 156.655 135.571C155.945 136.016 155.379 136.672 154.958 137.538C154.541 138.405 154.333 139.468 154.333 140.727C154.333 141.987 154.541 143.05 154.958 143.916C155.379 144.783 155.945 145.438 156.655 145.884C157.37 146.329 158.168 146.551 159.049 146.551C159.532 146.551 159.996 146.485 160.441 146.352C160.886 146.22 161.291 146.023 161.655 145.763C162.024 145.498 162.337 145.173 162.593 144.79C162.853 144.402 163.035 143.956 163.139 143.455H164.901C164.768 144.198 164.527 144.863 164.176 145.45C163.826 146.037 163.39 146.537 162.87 146.949C162.349 147.356 161.764 147.666 161.115 147.879C160.471 148.092 159.782 148.199 159.049 148.199C157.808 148.199 156.705 147.896 155.739 147.29C154.773 146.684 154.013 145.822 153.459 144.705C152.905 143.587 152.628 142.261 152.628 140.727C152.628 139.193 152.905 137.867 153.459 136.75C154.013 135.633 154.773 134.771 155.739 134.165C156.705 133.559 157.808 133.256 159.049 133.256C159.782 133.256 160.471 133.362 161.115 133.575C161.764 133.788 162.349 134.101 162.87 134.513C163.39 134.92 163.826 135.417 164.176 136.004C164.527 136.587 164.768 137.252 164.901 138ZM169.864 152.119C169.278 152.119 168.756 152.018 168.295 151.817C167.838 151.615 167.476 151.335 167.209 150.977C166.945 150.616 166.802 150.199 166.783 149.724H168.121C168.138 149.983 168.224 150.207 168.381 150.398C168.54 150.585 168.747 150.73 169.003 150.832C169.258 150.935 169.543 150.986 169.855 150.986C170.199 150.986 170.503 150.926 170.767 150.807C171.034 150.687 171.243 150.521 171.393 150.308C171.544 150.092 171.619 149.844 171.619 149.562C171.619 149.27 171.544 149.013 171.393 148.791C171.246 148.567 171.028 148.391 170.741 148.263C170.457 148.135 170.114 148.071 169.71 148.071H168.973V146.997H169.71C170.034 146.997 170.318 146.939 170.562 146.822C170.81 146.706 171.003 146.544 171.142 146.337C171.281 146.126 171.351 145.881 171.351 145.599C171.351 145.33 171.29 145.095 171.168 144.896C171.048 144.695 170.878 144.537 170.656 144.423C170.437 144.31 170.179 144.253 169.881 144.253C169.596 144.253 169.331 144.305 169.084 144.411C168.839 144.513 168.641 144.661 168.487 144.854C168.334 145.044 168.251 145.273 168.24 145.54H166.966C166.98 145.068 167.119 144.653 167.383 144.295C167.65 143.937 168.003 143.658 168.44 143.456C168.878 143.254 169.364 143.153 169.898 143.153C170.457 143.153 170.94 143.263 171.346 143.482C171.756 143.697 172.071 143.986 172.293 144.347C172.517 144.707 172.628 145.102 172.625 145.531C172.628 146.02 172.491 146.435 172.216 146.776C171.943 147.116 171.579 147.345 171.125 147.462V147.53C171.704 147.618 172.153 147.848 172.471 148.22C172.793 148.592 172.952 149.054 172.949 149.605C172.952 150.085 172.818 150.516 172.548 150.896C172.281 151.277 171.916 151.577 171.453 151.795C170.99 152.011 170.46 152.119 169.864 152.119ZM174.971 148.812V148.676C174.971 147.994 175.099 147.406 175.354 146.912C175.61 146.418 175.972 146.037 176.441 145.77C176.91 145.503 177.461 145.369 178.094 145.369C178.577 145.369 179.01 145.446 179.394 145.599C179.78 145.75 180.108 145.969 180.378 146.256C180.651 146.543 180.86 146.891 181.005 147.3C181.15 147.706 181.222 148.165 181.222 148.676V148.812C181.222 149.494 181.094 150.082 180.839 150.577C180.586 151.071 180.225 151.452 179.756 151.719C179.29 151.986 178.736 152.119 178.094 152.119C177.634 152.119 177.212 152.045 176.829 151.898C176.445 151.75 176.114 151.533 175.836 151.246C175.56 150.959 175.347 150.612 175.197 150.206C175.046 149.797 174.971 149.332 174.971 148.812ZM176.356 148.676V148.812C176.356 149.153 176.394 149.46 176.471 149.733C176.55 150.003 176.664 150.234 176.812 150.428C176.962 150.618 177.145 150.764 177.361 150.866C177.577 150.966 177.822 151.016 178.094 151.016C178.37 151.016 178.614 150.966 178.827 150.866C179.043 150.764 179.226 150.618 179.377 150.428C179.528 150.234 179.641 150.003 179.718 149.733C179.797 149.46 179.837 149.153 179.837 148.812V148.676C179.837 148.344 179.799 148.043 179.722 147.773C179.645 147.503 179.533 147.271 179.385 147.078C179.238 146.882 179.056 146.732 178.84 146.626C178.624 146.521 178.376 146.469 178.094 146.469C177.822 146.469 177.577 146.521 177.361 146.626C177.148 146.729 176.966 146.876 176.816 147.07C176.665 147.263 176.55 147.496 176.471 147.768C176.394 148.038 176.356 148.341 176.356 148.676ZM177.412 154.318V143.273H178.776V154.318H177.412ZM184.163 152H182.766L185.906 143.273H187.428L190.568 152H189.171L186.703 144.858H186.635L184.163 152ZM184.398 148.582H188.932V149.69H184.398V148.582Z" fill="black"/>
<path d="M69.0164 101V99.7216L76.8573 88.017H68.9312V86.4545H78.9596V87.733L71.1187 99.4375H79.0448V101H69.0164ZM81.934 105H80.5363L83.6769 96.2727H85.1982L88.3388 105H86.9411L84.4738 97.858H84.4056L81.934 105ZM82.1684 101.582H86.7025V102.69H82.1684V101.582ZM92.7407 96.2727V105H91.4197V97.5938H91.3686L89.2805 98.9574V97.696L91.4581 96.2727H92.7407Z" fill="black"/>
<path d="M579.257 15V0.454545H584.343C585.356 0.454545 586.192 0.629735 586.85 0.980114C587.508 1.32576 587.998 1.79214 588.32 2.37926C588.642 2.96165 588.803 3.60795 588.803 4.31818C588.803 4.94318 588.692 5.45928 588.469 5.86648C588.251 6.27367 587.962 6.59564 587.603 6.83239C587.248 7.06913 586.862 7.24432 586.445 7.35795V7.5C586.89 7.52841 587.337 7.68466 587.787 7.96875C588.237 8.25284 588.614 8.66004 588.917 9.19034C589.22 9.72064 589.371 10.3693 589.371 11.1364C589.371 11.8655 589.205 12.5213 588.874 13.1037C588.542 13.6861 588.019 14.1477 587.304 14.4886C586.589 14.8295 585.659 15 584.513 15H579.257ZM581.019 13.4375H584.513C585.664 13.4375 586.48 13.215 586.963 12.7699C587.451 12.3201 587.695 11.7756 587.695 11.1364C587.695 10.6439 587.569 10.1894 587.319 9.77273C587.068 9.35133 586.71 9.01515 586.246 8.7642C585.782 8.50852 585.233 8.38068 584.598 8.38068H581.019V13.4375ZM581.019 6.84659H584.286C584.816 6.84659 585.294 6.74242 585.721 6.53409C586.151 6.32576 586.492 6.0322 586.743 5.65341C586.999 5.27462 587.127 4.82955 587.127 4.31818C587.127 3.67898 586.904 3.13684 586.459 2.69176C586.014 2.24195 585.309 2.01705 584.343 2.01705H581.019V6.84659Z" fill="black"/>
<path d="M150.6 15H148.754L154.094 0.454545H155.913L161.254 15H159.407L155.06 2.75568H154.947L150.6 15ZM151.282 9.31818H158.725V10.8807H151.282V9.31818Z" fill="black"/>
<path d="M560.122 141.091C560.036 140.371 559.691 139.812 559.085 139.415C558.479 139.017 557.735 138.818 556.854 138.818C556.211 138.818 555.647 138.922 555.164 139.131C554.686 139.339 554.312 139.625 554.042 139.99C553.777 140.355 553.644 140.769 553.644 141.233C553.644 141.621 553.737 141.955 553.921 142.234C554.111 142.509 554.352 142.739 554.646 142.923C554.939 143.103 555.247 143.252 555.569 143.371C555.891 143.484 556.187 143.577 556.457 143.648L557.934 144.045C558.313 144.145 558.734 144.282 559.198 144.457C559.667 144.633 560.114 144.872 560.541 145.175C560.971 145.473 561.327 145.857 561.606 146.325C561.885 146.794 562.025 147.369 562.025 148.051C562.025 148.837 561.819 149.547 561.407 150.182C561 150.816 560.403 151.321 559.617 151.695C558.836 152.069 557.887 152.256 556.769 152.256C555.728 152.256 554.826 152.088 554.063 151.751C553.306 151.415 552.709 150.946 552.274 150.345C551.843 149.744 551.599 149.045 551.542 148.25H553.36C553.408 148.799 553.592 149.254 553.914 149.614C554.241 149.969 554.653 150.234 555.15 150.409C555.652 150.58 556.192 150.665 556.769 150.665C557.442 150.665 558.045 150.556 558.58 150.338C559.115 150.116 559.539 149.808 559.852 149.415C560.164 149.017 560.32 148.553 560.32 148.023C560.32 147.54 560.185 147.147 559.916 146.844C559.646 146.541 559.291 146.295 558.85 146.105C558.41 145.916 557.934 145.75 557.423 145.608L555.633 145.097C554.497 144.77 553.597 144.304 552.934 143.697C552.271 143.091 551.94 142.298 551.94 141.318C551.94 140.504 552.16 139.794 552.6 139.188C553.045 138.577 553.642 138.103 554.39 137.767C555.143 137.426 555.983 137.256 556.911 137.256C557.849 137.256 558.682 137.424 559.411 137.76C560.14 138.091 560.718 138.546 561.144 139.124C561.575 139.701 561.802 140.357 561.826 141.091H560.122ZM576.625 142H574.864C574.76 141.493 574.578 141.048 574.317 140.665C574.062 140.281 573.749 139.959 573.38 139.699C573.015 139.434 572.61 139.235 572.165 139.102C571.72 138.97 571.256 138.903 570.773 138.903C569.892 138.903 569.095 139.126 568.38 139.571C567.669 140.016 567.104 140.672 566.682 141.538C566.266 142.405 566.057 143.468 566.057 144.727C566.057 145.987 566.266 147.05 566.682 147.916C567.104 148.783 567.669 149.438 568.38 149.884C569.095 150.329 569.892 150.551 570.773 150.551C571.256 150.551 571.72 150.485 572.165 150.352C572.61 150.22 573.015 150.023 573.38 149.763C573.749 149.498 574.062 149.173 574.317 148.79C574.578 148.402 574.76 147.956 574.864 147.455H576.625C576.493 148.198 576.251 148.863 575.901 149.45C575.551 150.037 575.115 150.537 574.594 150.949C574.073 151.356 573.489 151.666 572.84 151.879C572.196 152.092 571.507 152.199 570.773 152.199C569.533 152.199 568.429 151.896 567.464 151.29C566.498 150.684 565.738 149.822 565.184 148.705C564.63 147.587 564.353 146.261 564.353 144.727C564.353 143.193 564.63 141.867 565.184 140.75C565.738 139.633 566.498 138.771 567.464 138.165C568.429 137.559 569.533 137.256 570.773 137.256C571.507 137.256 572.196 137.362 572.84 137.575C573.489 137.788 574.073 138.101 574.594 138.513C575.115 138.92 575.551 139.417 575.901 140.004C576.251 140.587 576.493 141.252 576.625 142ZM591.176 142H589.415C589.311 141.493 589.128 141.048 588.868 140.665C588.612 140.281 588.3 139.959 587.93 139.699C587.566 139.434 587.161 139.235 586.716 139.102C586.271 138.97 585.807 138.903 585.324 138.903C584.443 138.903 583.645 139.126 582.93 139.571C582.22 140.016 581.654 140.672 581.233 141.538C580.816 142.405 580.608 143.468 580.608 144.727C580.608 145.987 580.816 147.05 581.233 147.916C581.654 148.783 582.22 149.438 582.93 149.884C583.645 150.329 584.443 150.551 585.324 150.551C585.807 150.551 586.271 150.485 586.716 150.352C587.161 150.22 587.566 150.023 587.93 149.763C588.3 149.498 588.612 149.173 588.868 148.79C589.128 148.402 589.311 147.956 589.415 147.455H591.176C591.044 148.198 590.802 148.863 590.452 149.45C590.101 150.037 589.666 150.537 589.145 150.949C588.624 151.356 588.039 151.666 587.391 151.879C586.747 152.092 586.058 152.199 585.324 152.199C584.083 152.199 582.98 151.896 582.014 151.29C581.048 150.684 580.288 149.822 579.734 148.705C579.18 147.587 578.903 146.261 578.903 144.727C578.903 143.193 579.18 141.867 579.734 140.75C580.288 139.633 581.048 138.771 582.014 138.165C582.98 137.559 584.083 137.256 585.324 137.256C586.058 137.256 586.747 137.362 587.391 137.575C588.039 137.788 588.624 138.101 589.145 138.513C589.666 138.92 590.101 139.417 590.452 140.004C590.802 140.587 591.044 141.252 591.176 142ZM596.139 156.119C595.554 156.119 595.031 156.018 594.571 155.817C594.113 155.615 593.751 155.335 593.484 154.977C593.22 154.616 593.078 154.199 593.058 153.724H594.396C594.413 153.983 594.5 154.207 594.656 154.398C594.815 154.585 595.022 154.73 595.278 154.832C595.534 154.935 595.818 154.986 596.13 154.986C596.474 154.986 596.778 154.926 597.042 154.807C597.309 154.687 597.518 154.521 597.669 154.308C597.819 154.092 597.895 153.844 597.895 153.562C597.895 153.27 597.819 153.013 597.669 152.791C597.521 152.567 597.304 152.391 597.017 152.263C596.733 152.135 596.389 152.071 595.986 152.071H595.248V150.997H595.986C596.309 150.997 596.593 150.939 596.838 150.822C597.085 150.706 597.278 150.544 597.417 150.337C597.557 150.126 597.626 149.881 597.626 149.599C597.626 149.33 597.565 149.095 597.443 148.896C597.324 148.695 597.153 148.537 596.932 148.423C596.713 148.31 596.454 148.253 596.156 148.253C595.872 148.253 595.606 148.305 595.359 148.411C595.115 148.513 594.916 148.661 594.763 148.854C594.609 149.044 594.527 149.273 594.515 149.54H593.241C593.255 149.068 593.395 148.653 593.659 148.295C593.926 147.937 594.278 147.658 594.716 147.456C595.153 147.254 595.639 147.153 596.173 147.153C596.733 147.153 597.216 147.263 597.622 147.482C598.031 147.697 598.346 147.986 598.568 148.347C598.792 148.707 598.903 149.102 598.9 149.531C598.903 150.02 598.767 150.435 598.491 150.776C598.218 151.116 597.855 151.345 597.4 151.462V151.53C597.98 151.618 598.429 151.848 598.747 152.22C599.068 152.592 599.227 153.054 599.224 153.605C599.227 154.085 599.093 154.516 598.824 154.896C598.557 155.277 598.191 155.577 597.728 155.795C597.265 156.011 596.736 156.119 596.139 156.119ZM601.246 152.812V152.676C601.246 151.994 601.374 151.406 601.63 150.912C601.885 150.418 602.248 150.037 602.716 149.77C603.185 149.503 603.736 149.369 604.37 149.369C604.853 149.369 605.286 149.446 605.669 149.599C606.056 149.75 606.384 149.969 606.654 150.256C606.926 150.543 607.135 150.891 607.28 151.3C607.425 151.706 607.498 152.165 607.498 152.676V152.812C607.498 153.494 607.37 154.082 607.114 154.577C606.861 155.071 606.5 155.452 606.032 155.719C605.566 155.986 605.012 156.119 604.37 156.119C603.909 156.119 603.488 156.045 603.104 155.898C602.721 155.75 602.39 155.533 602.111 155.246C601.836 154.959 601.623 154.612 601.472 154.206C601.321 153.797 601.246 153.332 601.246 152.812ZM602.631 152.676V152.812C602.631 153.153 602.669 153.46 602.746 153.733C602.826 154.003 602.939 154.234 603.087 154.428C603.238 154.618 603.421 154.764 603.637 154.866C603.853 154.966 604.097 155.016 604.37 155.016C604.645 155.016 604.89 154.966 605.103 154.866C605.319 154.764 605.502 154.618 605.652 154.428C605.803 154.234 605.917 154.003 605.993 153.733C606.073 153.46 606.113 153.153 606.113 152.812V152.676C606.113 152.344 606.074 152.043 605.998 151.773C605.921 151.503 605.809 151.271 605.661 151.078C605.513 150.882 605.331 150.732 605.115 150.626C604.9 150.521 604.651 150.469 604.37 150.469C604.097 150.469 603.853 150.521 603.637 150.626C603.424 150.729 603.242 150.876 603.091 151.07C602.941 151.263 602.826 151.496 602.746 151.768C602.669 152.038 602.631 152.341 602.631 152.676ZM603.688 158.318V147.273H605.051V158.318H603.688ZM609.702 156V147.273H612.898C613.517 147.273 614.03 147.375 614.436 147.58C614.842 147.781 615.146 148.055 615.348 148.402C615.55 148.746 615.65 149.134 615.65 149.565C615.65 149.929 615.584 150.236 615.45 150.486C615.317 150.733 615.138 150.932 614.913 151.082C614.692 151.23 614.447 151.338 614.18 151.406V151.491C614.47 151.506 614.753 151.599 615.028 151.773C615.307 151.943 615.537 152.186 615.719 152.501C615.9 152.817 615.991 153.2 615.991 153.652C615.991 154.098 615.886 154.499 615.676 154.854C615.469 155.206 615.148 155.486 614.713 155.693C614.278 155.898 613.723 156 613.047 156H609.702ZM611.018 154.871H612.919C613.55 154.871 614.001 154.749 614.274 154.504C614.547 154.26 614.683 153.955 614.683 153.588C614.683 153.312 614.614 153.06 614.474 152.83C614.335 152.599 614.136 152.416 613.878 152.28C613.622 152.143 613.318 152.075 612.966 152.075H611.018V154.871ZM611.018 151.048H612.783C613.078 151.048 613.344 150.991 613.579 150.878C613.818 150.764 614.007 150.605 614.146 150.401C614.288 150.193 614.359 149.949 614.359 149.668C614.359 149.307 614.233 149.004 613.98 148.76C613.727 148.516 613.339 148.393 612.817 148.393H611.018V151.048Z" fill="black"/>
<circle cx="28" cy="28" r="27" transform="matrix(-1 0 0 1 739 46)" stroke="black" stroke-width="2"/>
<line y1="-1" x2="12" y2="-1" transform="matrix(-1 0 0 1 683 75)" stroke="black" stroke-width="2"/>
<line y1="-1" x2="58" y2="-1" transform="matrix(-1 0 0 1 642 75)" stroke="black" stroke-width="2" stroke-dasharray="4 4"/>
<rect x="-1" y="1" width="30" height="14" transform="matrix(-1 0 0 1 671 66)" stroke="black" stroke-width="2"/>
<path d="M732 76.4286L728.991 69.5437C726.36 63.5248 717.998 63.0662 714.724 68.7613L706.589 82.915C703.512 88.2701 695.784 88.2654 692.713 82.9064L689 76.4286" stroke="black" stroke-width="2"/>
<path d="M646.087 101V99.7216L653.928 88.017H646.001V86.4545H656.03V87.733L648.189 99.4375H656.115V101H646.087ZM658.267 105V96.2727H661.463C662.082 96.2727 662.595 96.375 663.001 96.5795C663.408 96.7812 663.712 97.0554 663.913 97.402C664.115 97.7457 664.216 98.1335 664.216 98.5653C664.216 98.929 664.149 99.2358 664.016 99.4858C663.882 99.733 663.703 99.9318 663.479 100.082C663.257 100.23 663.013 100.338 662.746 100.406V100.491C663.036 100.506 663.318 100.599 663.594 100.773C663.872 100.943 664.102 101.186 664.284 101.501C664.466 101.817 664.557 102.2 664.557 102.652C664.557 103.098 664.452 103.499 664.242 103.854C664.034 104.206 663.713 104.486 663.278 104.693C662.844 104.898 662.288 105 661.612 105H658.267ZM659.584 103.871H661.484C662.115 103.871 662.567 103.749 662.84 103.504C663.112 103.26 663.249 102.955 663.249 102.588C663.249 102.312 663.179 102.06 663.04 101.83C662.901 101.599 662.702 101.416 662.443 101.28C662.188 101.143 661.884 101.075 661.531 101.075H659.584V103.871ZM659.584 100.048H661.348C661.644 100.048 661.909 99.9915 662.145 99.8778C662.384 99.7642 662.572 99.6051 662.712 99.4006C662.854 99.1932 662.925 98.9489 662.925 98.6676C662.925 98.3068 662.798 98.0043 662.545 97.7599C662.293 97.5156 661.905 97.3935 661.382 97.3935H659.584V100.048ZM669.67 96.2727V105H668.349V97.5938H668.298L666.21 98.9574V97.696L668.388 96.2727H669.67Z" fill="black"/>
</svg>
