<svg width="615" height="158" viewBox="0 0 615 158" fill="none" xmlns="http://www.w3.org/2000/svg">
<circle cx="28" cy="74" r="27" stroke="black" stroke-width="2"/>
<line x1="155.999" y1="74.5" x2="584.001" y2="74.5" stroke="black" stroke-width="2"/>
<line x1="56" y1="74" x2="68" y2="74" stroke="black" stroke-width="2"/>
<line x1="97" y1="74" x2="155" y2="74" stroke="black" stroke-width="2" stroke-dasharray="4 4"/>
<line x1="156" y1="125" x2="156" y2="25" stroke="black" stroke-width="2"/>
<line x1="583" y1="125" x2="583" y2="25" stroke="black" stroke-width="2"/>
<rect x="67" y="67" width="30" height="14" stroke="black" stroke-width="2"/>
<path d="M7 76.4286L10.0093 69.5437C12.6402 63.5248 21.0024 63.0662 24.2757 68.7613L32.4105 82.915C35.4884 88.2701 43.2161 88.2654 46.2874 82.9064L50 76.4286" stroke="black" stroke-width="2"/>
<path d="M134.877 133.091C134.792 132.371 134.447 131.812 133.84 131.415C133.234 131.017 132.491 130.818 131.61 130.818C130.966 130.818 130.403 130.922 129.92 131.131C129.442 131.339 129.068 131.625 128.798 131.99C128.533 132.355 128.4 132.769 128.4 133.233C128.4 133.621 128.492 133.955 128.677 134.234C128.867 134.509 129.108 134.739 129.402 134.923C129.695 135.103 130.003 135.252 130.325 135.371C130.647 135.484 130.943 135.577 131.213 135.648L132.69 136.045C133.069 136.145 133.49 136.282 133.954 136.457C134.423 136.633 134.87 136.872 135.296 137.175C135.727 137.473 136.082 137.857 136.362 138.325C136.641 138.794 136.781 139.369 136.781 140.051C136.781 140.837 136.575 141.547 136.163 142.182C135.756 142.816 135.159 143.321 134.373 143.695C133.592 144.069 132.643 144.256 131.525 144.256C130.483 144.256 129.581 144.088 128.819 143.751C128.062 143.415 127.465 142.946 127.029 142.345C126.599 141.744 126.355 141.045 126.298 140.25H128.116C128.163 140.799 128.348 141.254 128.67 141.614C128.997 141.969 129.409 142.234 129.906 142.409C130.408 142.58 130.947 142.665 131.525 142.665C132.197 142.665 132.801 142.556 133.336 142.338C133.871 142.116 134.295 141.808 134.608 141.415C134.92 141.017 135.076 140.553 135.076 140.023C135.076 139.54 134.941 139.147 134.671 138.844C134.402 138.541 134.046 138.295 133.606 138.105C133.166 137.916 132.69 137.75 132.179 137.608L130.389 137.097C129.252 136.77 128.353 136.304 127.69 135.697C127.027 135.091 126.696 134.298 126.696 133.318C126.696 132.504 126.916 131.794 127.356 131.188C127.801 130.577 128.398 130.103 129.146 129.767C129.899 129.426 130.739 129.256 131.667 129.256C132.605 129.256 133.438 129.424 134.167 129.76C134.896 130.091 135.474 130.546 135.9 131.124C136.331 131.701 136.558 132.357 136.582 133.091H134.877ZM151.381 134H149.62C149.516 133.493 149.333 133.048 149.073 132.665C148.817 132.281 148.505 131.959 148.136 131.699C147.771 131.434 147.366 131.235 146.921 131.102C146.476 130.97 146.012 130.903 145.529 130.903C144.648 130.903 143.851 131.126 143.136 131.571C142.425 132.016 141.86 132.672 141.438 133.538C141.021 134.405 140.813 135.468 140.813 136.727C140.813 137.987 141.021 139.05 141.438 139.916C141.86 140.783 142.425 141.438 143.136 141.884C143.851 142.329 144.648 142.551 145.529 142.551C146.012 142.551 146.476 142.485 146.921 142.352C147.366 142.22 147.771 142.023 148.136 141.763C148.505 141.498 148.817 141.173 149.073 140.79C149.333 140.402 149.516 139.956 149.62 139.455H151.381C151.249 140.198 151.007 140.863 150.657 141.45C150.306 142.037 149.871 142.537 149.35 142.949C148.829 143.356 148.244 143.666 147.596 143.879C146.952 144.092 146.263 144.199 145.529 144.199C144.288 144.199 143.185 143.896 142.219 143.29C141.253 142.684 140.494 141.822 139.94 140.705C139.386 139.587 139.109 138.261 139.109 136.727C139.109 135.193 139.386 133.867 139.94 132.75C140.494 131.633 141.253 130.771 142.219 130.165C143.185 129.559 144.288 129.256 145.529 129.256C146.263 129.256 146.952 129.362 147.596 129.575C148.244 129.788 148.829 130.101 149.35 130.513C149.871 130.92 150.306 131.417 150.657 132.004C151.007 132.587 151.249 133.252 151.381 134ZM165.932 134H164.171C164.067 133.493 163.884 133.048 163.624 132.665C163.368 132.281 163.056 131.959 162.686 131.699C162.322 131.434 161.917 131.235 161.472 131.102C161.027 130.97 160.563 130.903 160.08 130.903C159.199 130.903 158.401 131.126 157.686 131.571C156.976 132.016 156.41 132.672 155.989 133.538C155.572 134.405 155.364 135.468 155.364 136.727C155.364 137.987 155.572 139.05 155.989 139.916C156.41 140.783 156.976 141.438 157.686 141.884C158.401 142.329 159.199 142.551 160.08 142.551C160.563 142.551 161.027 142.485 161.472 142.352C161.917 142.22 162.322 142.023 162.686 141.763C163.056 141.498 163.368 141.173 163.624 140.79C163.884 140.402 164.067 139.956 164.171 139.455H165.932C165.8 140.198 165.558 140.863 165.208 141.45C164.857 142.037 164.422 142.537 163.901 142.949C163.38 143.356 162.795 143.666 162.147 143.879C161.503 144.092 160.814 144.199 160.08 144.199C158.839 144.199 157.736 143.896 156.77 143.29C155.804 142.684 155.044 141.822 154.49 140.705C153.936 139.587 153.659 138.261 153.659 136.727C153.659 135.193 153.936 133.867 154.49 132.75C155.044 131.633 155.804 130.771 156.77 130.165C157.736 129.559 158.839 129.256 160.08 129.256C160.814 129.256 161.503 129.362 162.147 129.575C162.795 129.788 163.38 130.101 163.901 130.513C164.422 130.92 164.857 131.417 165.208 132.004C165.558 132.587 165.8 133.252 165.932 134ZM171.168 139.273V148H169.846V140.594H169.795L167.707 141.957V140.696L169.885 139.273H171.168ZM173.939 144.812V144.676C173.939 143.994 174.067 143.406 174.323 142.912C174.579 142.418 174.941 142.037 175.41 141.77C175.878 141.503 176.43 141.369 177.063 141.369C177.546 141.369 177.979 141.446 178.363 141.599C178.749 141.75 179.077 141.969 179.347 142.256C179.62 142.543 179.829 142.891 179.974 143.3C180.118 143.706 180.191 144.165 180.191 144.676V144.812C180.191 145.494 180.063 146.082 179.807 146.577C179.555 147.071 179.194 147.452 178.725 147.719C178.259 147.986 177.705 148.119 177.063 148.119C176.603 148.119 176.181 148.045 175.797 147.898C175.414 147.75 175.083 147.533 174.805 147.246C174.529 146.959 174.316 146.612 174.165 146.206C174.015 145.797 173.939 145.332 173.939 144.812ZM175.324 144.676V144.812C175.324 145.153 175.363 145.46 175.439 145.733C175.519 146.003 175.633 146.234 175.78 146.428C175.931 146.618 176.114 146.764 176.33 146.866C176.546 146.966 176.79 147.016 177.063 147.016C177.339 147.016 177.583 146.966 177.796 146.866C178.012 146.764 178.195 146.618 178.346 146.428C178.496 146.234 178.61 146.003 178.687 145.733C178.766 145.46 178.806 145.153 178.806 144.812V144.676C178.806 144.344 178.768 144.043 178.691 143.773C178.614 143.503 178.502 143.271 178.354 143.078C178.206 142.882 178.025 142.732 177.809 142.626C177.593 142.521 177.344 142.469 177.063 142.469C176.79 142.469 176.546 142.521 176.33 142.626C176.117 142.729 175.935 142.876 175.785 143.07C175.634 143.263 175.519 143.496 175.439 143.768C175.363 144.038 175.324 144.341 175.324 144.676ZM176.381 150.318V139.273H177.745V150.318H176.381ZM183.132 148H181.734L184.875 139.273H186.396L189.537 148H188.139L185.672 140.858H185.604L183.132 148ZM183.367 144.582H187.901V145.69H183.367V144.582Z" fill="black"/>
<path d="M69.0164 101V99.7216L76.8573 88.017H68.9312V86.4545H78.9596V87.733L71.1187 99.4375H79.0448V101H69.0164ZM81.934 105H80.5363L83.6769 96.2727H85.1982L88.3388 105H86.9411L84.4738 97.858H84.4056L81.934 105ZM82.1684 101.582H86.7025V102.69H82.1684V101.582ZM92.7407 96.2727V105H91.4197V97.5938H91.3686L89.2805 98.9574V97.696L91.4581 96.2727H92.7407ZM67.7742 125V123.722L75.6151 112.017H67.689V110.455H77.7174V111.733L69.8765 123.438H77.8026V125H67.7742ZM80.6918 129H79.2941L82.4347 120.273H83.956L87.0966 129H85.6989L83.2316 121.858H83.1634L80.6918 129ZM80.9262 125.582H85.4603V126.69H80.9262V125.582ZM91.636 129.145C90.9627 129.142 90.3874 128.964 89.9101 128.612C89.4328 128.26 89.0678 127.747 88.8149 127.074C88.5621 126.401 88.4357 125.589 88.4357 124.641C88.4357 123.695 88.5621 122.886 88.8149 122.216C89.0706 121.545 89.4371 121.034 89.9144 120.682C90.3945 120.33 90.9684 120.153 91.636 120.153C92.3036 120.153 92.876 120.331 93.3533 120.686C93.8306 121.038 94.1956 121.55 94.4485 122.22C94.7041 122.888 94.832 123.695 94.832 124.641C94.832 125.592 94.7056 126.405 94.4527 127.078C94.1999 127.749 93.8348 128.261 93.3576 128.616C92.8803 128.969 92.3064 129.145 91.636 129.145ZM91.636 128.007C92.2269 128.007 92.6885 127.719 93.0209 127.142C93.3561 126.565 93.5238 125.732 93.5238 124.641C93.5238 123.916 93.447 123.304 93.2936 122.804C93.1431 122.301 92.9257 121.92 92.6416 121.662C92.3604 121.401 92.0252 121.27 91.636 121.27C91.0479 121.27 90.5863 121.56 90.251 122.139C89.9158 122.719 89.7468 123.553 89.7439 124.641C89.7439 125.368 89.8192 125.983 89.9698 126.486C90.1232 126.986 90.3405 127.365 90.6218 127.624C90.903 127.879 91.2411 128.007 91.636 128.007Z" fill="black"/>
<path d="M579.257 15V0.454545H584.343C585.356 0.454545 586.192 0.629735 586.85 0.980114C587.508 1.32576 587.998 1.79214 588.32 2.37926C588.642 2.96165 588.803 3.60795 588.803 4.31818C588.803 4.94318 588.692 5.45928 588.469 5.86648C588.251 6.27367 587.962 6.59564 587.603 6.83239C587.248 7.06913 586.862 7.24432 586.445 7.35795V7.5C586.89 7.52841 587.337 7.68466 587.787 7.96875C588.237 8.25284 588.614 8.66004 588.917 9.19034C589.22 9.72064 589.371 10.3693 589.371 11.1364C589.371 11.8655 589.205 12.5213 588.874 13.1037C588.542 13.6861 588.019 14.1477 587.304 14.4886C586.589 14.8295 585.659 15 584.513 15H579.257ZM581.019 13.4375H584.513C585.664 13.4375 586.48 13.215 586.963 12.7699C587.451 12.3201 587.695 11.7756 587.695 11.1364C587.695 10.6439 587.569 10.1894 587.319 9.77273C587.068 9.35133 586.71 9.01515 586.246 8.7642C585.782 8.50852 585.233 8.38068 584.598 8.38068H581.019V13.4375ZM581.019 6.84659H584.286C584.816 6.84659 585.294 6.74242 585.721 6.53409C586.151 6.32576 586.492 6.0322 586.743 5.65341C586.999 5.27462 587.127 4.82955 587.127 4.31818C587.127 3.67898 586.904 3.13684 586.459 2.69176C586.014 2.24195 585.309 2.01705 584.343 2.01705H581.019V6.84659Z" fill="black"/>
<path d="M150.6 15H148.754L154.094 0.454545H155.913L161.254 15H159.407L155.06 2.75568H154.947L150.6 15ZM151.282 9.31818H158.725V10.8807H151.282V9.31818Z" fill="black"/>
<path d="M561.153 140.091C561.068 139.371 560.722 138.812 560.116 138.415C559.51 138.017 558.766 137.818 557.886 137.818C557.242 137.818 556.678 137.922 556.195 138.131C555.717 138.339 555.343 138.625 555.073 138.99C554.808 139.355 554.676 139.769 554.676 140.233C554.676 140.621 554.768 140.955 554.952 141.234C555.142 141.509 555.383 141.739 555.677 141.923C555.97 142.103 556.278 142.252 556.6 142.371C556.922 142.484 557.218 142.577 557.488 142.648L558.965 143.045C559.344 143.145 559.765 143.282 560.229 143.457C560.698 143.633 561.146 143.872 561.572 144.175C562.003 144.473 562.358 144.857 562.637 145.325C562.917 145.794 563.056 146.369 563.056 147.051C563.056 147.837 562.85 148.547 562.438 149.182C562.031 149.816 561.435 150.321 560.649 150.695C559.867 151.069 558.918 151.256 557.801 151.256C556.759 151.256 555.857 151.088 555.095 150.751C554.337 150.415 553.74 149.946 553.305 149.345C552.874 148.744 552.63 148.045 552.573 147.25H554.391C554.439 147.799 554.623 148.254 554.945 148.614C555.272 148.969 555.684 149.234 556.181 149.409C556.683 149.58 557.223 149.665 557.801 149.665C558.473 149.665 559.077 149.556 559.612 149.338C560.147 149.116 560.57 148.808 560.883 148.415C561.195 148.017 561.352 147.553 561.352 147.023C561.352 146.54 561.217 146.147 560.947 145.844C560.677 145.541 560.322 145.295 559.881 145.105C559.441 144.916 558.965 144.75 558.454 144.608L556.664 144.097C555.528 143.77 554.628 143.304 553.965 142.697C553.302 142.091 552.971 141.298 552.971 140.318C552.971 139.504 553.191 138.794 553.631 138.188C554.077 137.577 554.673 137.103 555.421 136.767C556.174 136.426 557.015 136.256 557.943 136.256C558.88 136.256 559.713 136.424 560.443 136.76C561.172 137.091 561.749 137.546 562.176 138.124C562.606 138.701 562.834 139.357 562.857 140.091H561.153ZM577.657 141H575.895C575.791 140.493 575.609 140.048 575.348 139.665C575.093 139.281 574.78 138.959 574.411 138.699C574.046 138.434 573.642 138.235 573.196 138.102C572.751 137.97 572.287 137.903 571.804 137.903C570.924 137.903 570.126 138.126 569.411 138.571C568.701 139.016 568.135 139.672 567.714 140.538C567.297 141.405 567.089 142.468 567.089 143.727C567.089 144.987 567.297 146.05 567.714 146.916C568.135 147.783 568.701 148.438 569.411 148.884C570.126 149.329 570.924 149.551 571.804 149.551C572.287 149.551 572.751 149.485 573.196 149.352C573.642 149.22 574.046 149.023 574.411 148.763C574.78 148.498 575.093 148.173 575.348 147.79C575.609 147.402 575.791 146.956 575.895 146.455H577.657C577.524 147.198 577.283 147.863 576.932 148.45C576.582 149.037 576.146 149.537 575.625 149.949C575.105 150.356 574.52 150.666 573.871 150.879C573.227 151.092 572.538 151.199 571.804 151.199C570.564 151.199 569.461 150.896 568.495 150.29C567.529 149.684 566.769 148.822 566.215 147.705C565.661 146.587 565.384 145.261 565.384 143.727C565.384 142.193 565.661 140.867 566.215 139.75C566.769 138.633 567.529 137.771 568.495 137.165C569.461 136.559 570.564 136.256 571.804 136.256C572.538 136.256 573.227 136.362 573.871 136.575C574.52 136.788 575.105 137.101 575.625 137.513C576.146 137.92 576.582 138.417 576.932 139.004C577.283 139.587 577.524 140.252 577.657 141ZM592.207 141H590.446C590.342 140.493 590.16 140.048 589.899 139.665C589.644 139.281 589.331 138.959 588.962 138.699C588.597 138.434 588.192 138.235 587.747 138.102C587.302 137.97 586.838 137.903 586.355 137.903C585.475 137.903 584.677 138.126 583.962 138.571C583.252 139.016 582.686 139.672 582.264 140.538C581.848 141.405 581.639 142.468 581.639 143.727C581.639 144.987 581.848 146.05 582.264 146.916C582.686 147.783 583.252 148.438 583.962 148.884C584.677 149.329 585.475 149.551 586.355 149.551C586.838 149.551 587.302 149.485 587.747 149.352C588.192 149.22 588.597 149.023 588.962 148.763C589.331 148.498 589.644 148.173 589.899 147.79C590.16 147.402 590.342 146.956 590.446 146.455H592.207C592.075 147.198 591.833 147.863 591.483 148.45C591.133 149.037 590.697 149.537 590.176 149.949C589.655 150.356 589.071 150.666 588.422 150.879C587.778 151.092 587.089 151.199 586.355 151.199C585.115 151.199 584.011 150.896 583.046 150.29C582.08 149.684 581.32 148.822 580.766 147.705C580.212 146.587 579.935 145.261 579.935 143.727C579.935 142.193 580.212 140.867 580.766 139.75C581.32 138.633 582.08 137.771 583.046 137.165C584.011 136.559 585.115 136.256 586.355 136.256C587.089 136.256 587.778 136.362 588.422 136.575C589.071 136.788 589.655 137.101 590.176 137.513C590.697 137.92 591.133 138.417 591.483 139.004C591.833 139.587 592.075 140.252 592.207 141ZM597.443 146.273V155H596.122V147.594H596.071L593.983 148.957V147.696L596.16 146.273H597.443ZM600.215 151.812V151.676C600.215 150.994 600.343 150.406 600.598 149.912C600.854 149.418 601.216 149.037 601.685 148.77C602.154 148.503 602.705 148.369 603.338 148.369C603.821 148.369 604.255 148.446 604.638 148.599C605.025 148.75 605.353 148.969 605.623 149.256C605.895 149.543 606.104 149.891 606.249 150.3C606.394 150.706 606.466 151.165 606.466 151.676V151.812C606.466 152.494 606.338 153.082 606.083 153.577C605.83 154.071 605.469 154.452 605 154.719C604.534 154.986 603.98 155.119 603.338 155.119C602.878 155.119 602.456 155.045 602.073 154.898C601.689 154.75 601.358 154.533 601.08 154.246C600.804 153.959 600.591 153.612 600.441 153.206C600.29 152.797 600.215 152.332 600.215 151.812ZM601.6 151.676V151.812C601.6 152.153 601.638 152.46 601.715 152.733C601.794 153.003 601.908 153.234 602.056 153.428C602.206 153.618 602.39 153.764 602.605 153.866C602.821 153.966 603.066 154.016 603.338 154.016C603.614 154.016 603.858 153.966 604.071 153.866C604.287 153.764 604.471 153.618 604.621 153.428C604.772 153.234 604.885 153.003 604.962 152.733C605.042 152.46 605.081 152.153 605.081 151.812V151.676C605.081 151.344 605.043 151.043 604.966 150.773C604.89 150.503 604.777 150.271 604.63 150.078C604.482 149.882 604.3 149.732 604.084 149.626C603.868 149.521 603.62 149.469 603.338 149.469C603.066 149.469 602.821 149.521 602.605 149.626C602.392 149.729 602.211 149.876 602.06 150.07C601.909 150.263 601.794 150.496 601.715 150.768C601.638 151.038 601.6 151.341 601.6 151.676ZM602.657 157.318V146.273H604.02V157.318H602.657ZM608.67 155V146.273H611.866C612.486 146.273 612.998 146.375 613.405 146.58C613.811 146.781 614.115 147.055 614.317 147.402C614.518 147.746 614.619 148.134 614.619 148.565C614.619 148.929 614.552 149.236 614.419 149.486C614.285 149.733 614.106 149.932 613.882 150.082C613.66 150.23 613.416 150.338 613.149 150.406V150.491C613.439 150.506 613.722 150.599 613.997 150.773C614.275 150.943 614.506 151.186 614.687 151.501C614.869 151.817 614.96 152.2 614.96 152.652C614.96 153.098 614.855 153.499 614.645 153.854C614.437 154.206 614.116 154.486 613.682 154.693C613.247 154.898 612.692 155 612.016 155H608.67ZM609.987 153.871H611.888C612.518 153.871 612.97 153.749 613.243 153.504C613.516 153.26 613.652 152.955 613.652 152.588C613.652 152.312 613.582 152.06 613.443 151.83C613.304 151.599 613.105 151.416 612.847 151.28C612.591 151.143 612.287 151.075 611.935 151.075H609.987V153.871ZM609.987 150.048H611.751C612.047 150.048 612.312 149.991 612.548 149.878C612.787 149.764 612.976 149.605 613.115 149.401C613.257 149.193 613.328 148.949 613.328 148.668C613.328 148.307 613.202 148.004 612.949 147.76C612.696 147.516 612.308 147.393 611.785 147.393H609.987V150.048Z" fill="black"/>
</svg>
